<svg xmlns="http://www.w3.org/2000/svg" xmlns:xlink="http://www.w3.org/1999/xlink" fill="none" viewBox="0 0 525 452">
  <g clip-path="url(#a)">
    <path fill="#010203" d="m185.6 145.5.4-.3q.2-1.2.8-2 1-2.3 2.1-4.3l2.1-4 1.6-3.3.2-.2c.8-1 .8-1 1-2.1 0-1 1.4-4 2-5 2.6-5.5 10.8-10.2 16.4-12.5 13.9-5.5 28.7-14.8 44.1-12.5 1.7.3 3.7 1.5 5.2 2.3 4.6 1.7 6.8 3.4 9.5-1.7-.2-1.8.6-3.8.8-5.5A97 97 0 0 1 294.1 43c1.7-1.9 4.6-5.8 6.4-7.5 1.5-1.4 5.4-3.5 7.4-5.2 3.4-2.8 5.3-5 9.7-7.5l1.4-.8q0 .6-.3 1.7c-1.5 6-7.9 8.6-8.8 10.4a159 159 0 0 0-8.6 55.7l.2 1c5.5 5.3 7.1 10.2 10.6 16.8.6 1.2 1 2 1.2 3.4 2.6-1.3 4.9-3.1 7.5-1.3l.2.6c1.1-.7 1.7-1 2.6-1.9l-.2-.3-.3.1c-2.5-3.4-6.2 1-9.2 1.8-.7-.7-1.9-3.5-2.4-4.5-3.3-6.8-4.2-9.8-9.5-15-.1-15.9.8-27.9 4.6-43.2 3.6-14.7 3.4-14.4 15-24.2 7.6-6.3 11.8-7.7 21-11.2a192 192 0 0 1 21-7.1c1.8-.5 8.4-1 9.3-1.6 5.3.2 10.3-.3 15.4-.2 6.8.2 15 .6 21.6 2.4l21.4 5.8c3.3.9 7.2 3.3 10.8 3.1l1-.8a77 77 0 0 0 19 7.3c1.9.1 3.4-.5 3.4-.5q1.8-.8 2-1.1 1.5-1.6 1.7-2.4c1-2.3 4.8-6.7 10-7.8 3.4-.8 6.2-.6 7.3-.4a17 17 0 0 1 7.5 3.6 19 19 0 0 1 5.4 6.8c.3.6 1.2 2.6 1.6 5.6l.1 1.4-.3 4-.4 2.1-.1.8-.3 2c-.2 1.8.2 4.7.2 4.7.2 1.3.5 3.8 2 7.3a146 146 0 0 1 13.3 41.4c2 10.4 2.4 19.4 2 30 0 4.6.3 9.8-.3 14.5-1 6.9-2.7 14.6-4 21.5-.6 2.5-2.7 8.1-3.6 10.8-2.3 7.5-4.8 17.2-10.2 23-3.3 3.4-8 6-11.3 9-3 2.8-4 5.7-8 8.6-7.4 7-24.4 9-34.2 9.7-5.3 1.2-11.8 1.9-16.5 4.3l-.4.1c-10.1 4.1-18.3 1.5-25.1 10.8-2.3 3-6 4-3.5 9.5 1.4 1 2 1.3 3.6 2 1.4.2 3.8-.3 5.4-.3 6.8-.2 7 3 13.1 4.2 5.3.4 5-.4 5.8-4.7.3-1.2.4-2 1.3-3 3.8-1.9 14.6 3.6 16.8 6.7 1 1.5 1.9 2.4 2 4 2.6 1.2 7.2 4 8.7 6.5 1 1.7-1.9 5-2.3 7-1 4.6 3.9 11.3.3 15.1l-2.2 4.2c-.5 2.2-1.3 5.7-2 7.7l-2.6 1.2c-3.7 2.9-8 1.5-10.4 4.5-.4 2.8-.2 5.5-3.2 6.6-.7.3-2.2.8-3 .6-10.2-2.2-19.2-10-29.7-11.3-2.4-.2-6.5 5.4-8.2 6.9-6.6 5.8-12 6.4-20.6 6.7q2.2 1.4 4.1 3.2c7.2 2.7 16.7 5 23 9.4 6.8 4.8 28.6 39 32.5 47.6 3 6.5 1 13 4.5 19.5q1 1.2 2.4 1.7c2.8.8 5.5-3 7.7-4.1l.3-.1c-2.6 3-9.8 9.1-13.5 10.3l-.7-.1-.1-.4q.2-.8.6-1.3c-.6-.6-.7-1.8-.8-2.6a37 37 0 0 0-13.8 10.8 34 34 0 0 0-3.7 6.5l1.7 3-15.3 4q-4 1-8.2 1.8c-2.1-.4-4.2-1.7-6-2.8l4.8-.2c2.6-.7 5.4-.7 7.6-2.4 3.2-4 .3-.8 3.9-2 .6-1.4 1.6-3 1.4-4.5q-.6-1.2-1.9-1.6c-2-1.2-4.5-1.6-6.7-2.5-2.7-1.2-5.3-2.8-8.2-3.7s-17.2 1-20 2.4a67 67 0 0 1-15.4 2.9l-7.8-.2c-5.7.1-9.7.8-15.6.2l-4 .7c-4.4.4-9.1 1.5-13.4 1.3a7 7 0 0 1 3.5-2.3q3.7-2 7.9-2.8l1.5.5q.7.3 1.6.4c.8 0 .9 0 1.4-.4v-.8q-.6-.2-1-.8l-.1-.2c1.2-.2 2.4-1 3.6-1.4q3.2-1.1 6.6-1.6c6.8-2.5 14.5-2.2 21.5-3.7 4.9-1.4 16-2.6 19.5-5 .2-3.7-2.7-7-3-10.7-4.8-5.9-2.9-9.3-10.5-14.8q-3.3-.4-6.6-.3c-7.1.4-14.2 2.1-21.3 3.1-14.2 2.1-29.4 2.9-43 7.5-4 1.4-7.8 4.4-11.5 6.5q-.7-.5-1.7-.7l7.4-5.8q-6.6-.3-13.2-1.3c-12.2-1.9-27.7-5.8-37-14.3-3-2.7-5.2-6.1-7.6-9.3-1 .6-2.7 1.3-3.2 2.5l-.3-.4-.2-.1c-2-1.5-8-.2-8-.2-2.7.7-5.6.7-8.5 1a130 130 0 0 1-38-2.6 129 129 0 0 1-38.6-15.8c-12-7.3-20-14.8-23.3-18.2-4-3.9-3-3.5-10-11a152 152 0 0 0-20.6-20.3 84 84 0 0 0-48.6-15.8c-18-.2-30.2 6.8-31.3 4.6-.6-1.3 3.7-4.7 5.9-6.3a72 72 0 0 1 31.5-13.2c9.7-1.8 17.1-1.9 17.7-1.9q.3.2 1.1 0c1.7-1-.4-6 .8-6.6 1.7-1 8.3 9.8 14.2 8.7.6 0 .7-.2 1.5-.3 4.2-.5 7 3.5 8.2 2.6.9-.6-.5-2.8.8-6.3l.6-1.2c1.7-.9 5.8 5.7 13.4 12.3 2.5 2.1 9.2 8 11.7 6.4 1.7-1.2 0-5.4 1.2-6 1.8-.7 6.7 7 16.2 16.6 1.5 1.4 4.5 4.4 5.7 3.7 1.1-.7-.4-4.2.4-4.7 1.5-.8 7 9.9 18.3 17.6 6.9 4.6 9 3.6 9.7 3.2 2.4-1.5.5-6.1 2.4-7.6 4.5-3.7 23.1 19 30 16.7 3.5-1.3-.3-9 3.8-12.4 6.3-5.4 20.7 6 25.9 1 1.4-1.4 1.1-2.2 1.4-11.4l.5-15.2q0-1-.9-1.3c-1-.3-2 0-4.4 0a28 28 0 0 1-12-3.2C199 255 195.9 251 187 245c-6.8-4.7-14.8-9-14.4-13.1 0-.6.3-1.4 0-2.4-.7-2.1-2.6-2-5.2-4.6-1.9-2-2-3-3.6-3.6-.8-.3-1-.1-2.8-.6-.3-1.3-2.8.2-3.2-1.5-.1-.4-.5-.4-.3-2.2.2-3-.3-3.5-.5-3.9-.4-1.2-.9-1.3-1.3-2.1-.7-1.4.1-3.5 1.6-6.9.6-1.4.7-1.3 1.3-2.9.8-1.8.8-2.2 1.5-4l1.6-3.3 1.8-3.6 2.2-4.7 1.8-3.2m164.6-94.9c-2.3-.1-5.7-.7-7.3.7-.4 1.2-.4.6-.2 1.8 1.8 1.2 5-.2 7.2.2.5-.9.3-1.7.3-2.7m-39 102.5-.4-1.9c-1-1.7-5.2-5.8-7-8l-.6.7c3 3 5.3 5.8 8 9.2"/>
    <path fill="#000" d="M511.7 66.3q3.3 10.8 5.3 23c2 12.4 2.3 22 2.3 25.5 0 8.6.5 14.5-.5 20.9L517 145c-.8 5-.9 5.9-1.4 8-.8 3.5-1.5 5-2.8 9.1-2.3 6.9-1.8 6.8-3.4 11.4-3 8.6-4.7 12.5-8.3 16.2s-5.7 3.8-11.3 9c-4.3 4.1-5.5 6.4-7.7 8.8-5.9 6.4-13.2 6.9-36.5 10.6-22 3.6-21.2 4-23.3 3.7-17.8-3.2-24.8-27.6-33.8-44.7-30.7-58.7-93.8-48.6-101.2-89.7-4.6-25.9 16.3-52.8 31.6-65.4a99 99 0 0 1 40.5-19C374.7-.6 387 0 390.7.2c13.3.8 26 4.2 38.6 7.6l11.8 3.2 16.6 4.6c3.5 1 5.7 1.5 8.3.6 2.8-1 3.3-2.7 5.7-4.9a19 19 0 0 1 17.7-3.8c4.3 1.5 6.8 4.6 8 6a22 22 0 0 1 4.5 14.2c-.1 3.4-1 3.2-1 6.7-.3 5.6 1.6 9.9 3.1 13.3 2.8 6.1 5.9 12.2 7.7 18.6"/>
    <path fill="url(#b)" d="M372.8 3.2h.4c5.2.1 10-.4 15.1-.2 6.8.1 15 .6 21.7 2.4l21.3 5.7c3.3 1 7.3 3.3 10.8 3.2l.5-.5c.9-.1 1.8 1.5 2 2 2 3.2 10.3 6.5 17.2 6a24 24 0 0 0 9-2.5 6 6 0 0 0 2.3-3c.4-1.1 0-1.5.4-2.3.9-1.6 3.4-1.8 3.7-1.9.6 0 1.5 0 4.7 1.2l3.9 1.6c2.5.7 6.1 3.8 8.6 8 3.3 5.2.7 7.2 4 15.9.9 2.4 1 1.9 3.8 8l5 11.8c4.2 9.7 6.2 19.5 8.3 29.7 2 10.4 2.4 19.3 2.1 30-.1 4.6.2 9.8-.3 14.5-1 6.8-2.8 14.5-4.1 21.4-.5 2.5-2.6 8.2-3.5 10.9-2.4 7.5-4.9 17.1-10.3 23-3.2 3.4-7.9 5.9-11.3 9-3 2.7-4 5.6-7.7 8.5l-.4.2-1.4.3c3.7-5 7-11.5 10.3-16.9h-2a1 1 0 0 0-.6.7c-1 2.8-8.3 14.2-10.7 15.6l-2.3.8a1 1 0 0 1-1-.4l-.7-.4-.6-.1c-17 3.2-35.4 3.2-52.7 3.6h-4.2l-12.2-.3-12.2-.7h-.1c-5.1.4-7.5.7-12.7.3q-2.7-.4-5.2-.5h-.3q-1.5.4-3 .5c-1 0-1.4 1.6-.3 2-6 0-16.7-1.6-23-2.5l-2.4-.3c-1.6-.5-3.3-.3-5.2-1h-.5c-4.1-5-9-15.3-11.3-21.3a11 11 0 0 0-2.6-4q-.4-.4-.4-1c.2-1.4 0-1.6-1-2.8l-1.3-1.6 1.3-.2-.7-.8c.7-.8 1-1 1.2-1.4a1 1 0 0 1 1.7-.2q.4.5 1 .6l.3-.1.2-1.2c.8-2.5 1.4-6.2 1.9-8.8.4-2.1 1.5-6.6 1.5-8.6l-.4-.4-6.4-1-1.5-2.1.1-.6-.2-1.7c-1.8-5.5.2-12.4.5-18 .3-5.1.8-16-.1-20.7l.1-.4c1.2-.6 1.8-.9 2.7-1.9l-.3-.3-.2.1c-2.3-3-5.6.2-8.4 1.5q-.8.3-1.4-.4l-1.8-3.8c-3.2-6.6-4.1-9.7-9.2-14.7q-.3-.3-.4-.8c0-15.6 1-27.5 4.6-42.7 3.6-14.7 3.5-14.4 15-24.1 7.6-6.4 11.9-7.8 21.2-11.3 7-2.7 13.5-5.2 20.8-7 1.8-.6 8-1 9.3-1.6m-40.5 85.3q0-.9-1-1c-2.2-.2-5-.4-6.3.8-.4 1-.4.7-.3 1.2q0 .6.7.9c1.6.5 4-.3 5.8-.3q1 0 1.1-.9z"/>
    <path fill="url(#c)" d="M364.3 22.5c4.1-.9 21.3-2.1 25.4-1.7 1.2 1.4 3.8 5.7 5 7.5 7.5.5 21.6.1 28.6 1.6 1 .2 6 2.6 6.5 3-.5.6-.3.4-1 .6l27.2 4c6.2 1.5 15.3 3 20.5 6.1 4.2.8 6.4 6.2 8.4 9.3l.9-.8c-.1.8-.2.8 0 1.6h.6c.7-2-.5-4.5-1.1-6.6l-.3-.2c1.1-.6.7-.6 1.8-.4 2 1.6 3.8 8.7 2.7 10.7-1.2.3-.7 0-1.6 1 3 .8 11.8 2.8 13.2 5.3 1 5.5 3 11.2 4.1 16.8a165 165 0 0 1-1 71 128 128 0 0 1-8 24.4q-5 .7-10 1.7h-.4c-2.5.2-11.7 1-14.1 1.6h3.7l.2.6h2.5c1.1-.1 1.2-.1 2.2.4 1.4 1.6-.9 5.1-1.8 7.1l-6.9 1q-13.2 1.5-26.4 1.9c-2.5 0-11.8.1-13.6.5-12.8.2-25.4-1-38-1.5l-1.5 1c-6.5-.2-19.4-1.8-26-2.7-9.5-1.3-24.7-3-33.9-5.3-1-1.8-3.2-7.1-4.6-7.8 0-1.6 2.4-11 3-13.7 1.6-8 2-15 3-22.9.2-1.8.5-2.9.8-4.6-.1-1 .5-10 .5-11.5q.4-11.1.3-22.2c.2-3.2-.2-8.2-.3-11.7-.5-17.7-3.1-34.7-5.6-52.2q7.2-1.5 14.4-2.6c5.3-.8 12.2-1.4 17.3-2.7 1.1-.2 2.7-6.1 3.3-7.7"/>
    <path fill="#184049" d="M368.2 22.2c5.1-.7 18.6-1.7 23.5-1.5q.8 0 1.4.7l3.9 6q.5.9 1.4.9c7.6.4 20.8.1 27.6 1.5h.3c1 .4 5.9 2.6 6.3 3.1-.5.5-.3.4-1 .6l27.1 4h.2c6 1.5 15 2.9 20.2 6l.5.1c4 1 6.1 6.2 8 9.2l1-.7c-.1.7-.2.8 0 1.6h.6c.6-2-.5-4.5-1.2-6.6l-.2-.2.2-.2q1.4-.6 2.3.6a17 17 0 0 1 2.3 8.4q0 1.1-1.1 1.7h-.2q-.7.6-1.5.4c-5-1.1-10.4-2.7-15.5-3.9l-.4-.7.3-.7a142 142 0 0 0-19-3.4l.6.8c-.3.7 0 .4-.8.8a413 413 0 0 0-96.6-1.1c-5.1.5-15.2 1.4-20.8 2.7q-1.4.4-1.4 2c1.2 12.9 2.6 24.7 2.8 37.9v.1c-.2 2.3.1 5.4-.2 7.1l-.3.2-.5-.3c.2-3.3-.2-8.3-.3-11.7-.5-17.2-3-33.7-5.4-50.6q-.1-1.6 1.4-2 6.5-1.3 12.8-2.2l17.3-2.7c1-.3 2.2-4.4 2.9-6.7q.4-1 1.5-1.2"/>
    <path fill="#a8e3e7" d="M384.4 32.3q7.2-.6 14.5-.3 15 0 29.9 1.5l27.2 4c6.2 1.5 15.3 3 20.5 6.1 4.2.8 6.4 6.2 8.4 9.3l.9-.8c-.1.8-.2.9 0 1.6h.6c.6-2-.5-4.5-1.2-6.6l-.2-.2c1.1-.6.7-.6 1.8-.4 2 1.6 3.8 8.8 2.7 10.7-1.2.3-.7 0-1.6 1-5.3-1.3-11-3-16.4-4.2l-.4-.8.3-.6a142 142 0 0 0-19-3.4 301 301 0 0 0-54-4q-6.4 0-12.7.4a62 62 0 0 1-1.4-13.3"/>
    <path fill="url(#d)" d="M386 33.6c14.3 0 35.4.3 49.5 2.6a81 81 0 0 1 12 9.5c-1 .2-1.2.2-2.4.2a351 351 0 0 0-58-2.4z"/>
    <path fill="#5a6c73" d="M435.5 36.2c4 .4 22 2.9 24.7 4.2v.6l.3.3c1.5 1.2 6.8 6.6 7.4 8.2-6.2-.5-16-2.7-22.8-3.6 1.2 0 1.4 0 2.5-.2a84 84 0 0 0-12.1-9.5"/>
    <path fill="#184049" d="M460.2 40.4c2.3.5 14.2 3.6 15.7 3.7l.6-.5c4.2.9 6.4 6.3 8.4 9.3l-.4 1c-4.2-1.4-13.8-3.2-16.6-4.4-.6-1.6-6-7-7.4-8.2l-.3-.3z"/>
    <path fill="#092b2c" d="m484.9 52.9.9-.8c-.1.8-.2.9 0 1.6l.6.1c.6-2-.5-4.5-1.2-6.7l-.2-.2c1.1-.5.7-.5 1.8-.4 2 1.6 3.8 8.8 2.7 10.8-1.2.3-.7 0-1.6.8-5.3-1.1-11-2.8-16.4-4l-.4-.8.3-.7 18.2 4.5q0-2-.7-5a19 19 0 0 0-2-4.6l-.5-.1c-.5 2 .8 5.3 1.5 7.3l-3.4-.8z"/>
    <path fill="#a8e3e7" d="M376.2 43.4c-1 1-2.7 1.7-4.7 1.2a5 5 0 0 1-3.8-6.3 5 5 0 0 1 6.3-3.7 5 5 0 0 1 3.2 2.3q.2-.8.9-2l.4.5a9 9 0 0 0-.2 3.4l-.3.2q-1.4-.6-3.3-.8l-.4-.6 2.2-.2a4 4 0 0 0-2.7-2c-2.3-.6-4.6.8-5.2 3.1a4.3 4.3 0 0 0 3.1 5.3c2 .5 3.6-.7 4-1z"/>
    <path fill="#a8e3e7" d="m376.2 43.4.2.2.1-.2-.1-.1zm1-6.5-.2.2.3.5.1-.6zm.9-2 .2-.2-.3-.3-.2.3zm.4.5h.2v-.1zm-.2 3.4.1.2h.1v-.2zm-.3.2-.1.3h.3zm-3.3-.8-.2.1v.1h.2zm-.4-.6v-.2h-.4l.2.4zm2.2-.2v.3h.5l-.3-.4zm-.8 5.4.1-.2-.1-.2-.2.2zm.5.6-.2-.2q-1.4 1.7-4.4 1.1v.3l-.1.2c2 .5 3.9-.2 4.9-1.2zm-4.7 1.2v-.3a5 5 0 0 1-3.5-5.9h-.2l-.3-.1a5.4 5.4 0 0 0 4 6.5zm-3.7-6.3.2.1a5 5 0 0 1 6-3.6v-.5a5.4 5.4 0 0 0-6.5 4zm6.2-3.7v.2q2 .6 3 2.2h.2l.2-.2a5 5 0 0 0-3.3-2.5zm3.2 2.3h.2l.9-2h-.2l-.3-.2-.9 2.2zm.9-2-.2.1.4.6.2-.2.2-.1-.4-.6zm.4.5h-.2a9 9 0 0 0-.3 3.5h.3l.2-.1q-.1-1.4.3-3.3zm-.2 3.4-.2-.2-.2.2.1.2.2.2.2-.2zm-.3.2.1-.2q-1.4-.7-3.4-.9v.5a8 8 0 0 1 3.2.8zm-3.3-.8.2-.2-.4-.5-.2.1-.2.2.4.5zm-.4-.6v.3q1.5-.3 2.2-.2v-.5l-2.3.2zm2.2-.2.2-.1a5 5 0 0 0-2.8-2.2v.3l-.1.2q1.8.6 2.5 2zm-2.7-2v-.2a4.6 4.6 0 0 0-5.4 3.3h.2l.2.1a4 4 0 0 1 5-3zm-5.2 3.1h-.2c-.6 2.4.8 4.9 3.3 5.5v-.2l.1-.3a4 4 0 0 1-3-4.9zm3.2 5.3-.1.2c2.2.5 3.8-.7 4.1-1l-.1-.2-.2-.2c-.3.3-1.8 1.4-3.7 1zm3.9-1-.2.2.5.6.2-.2.2-.1-.5-.7zm-17 2.5-1.1-.9 2.5-3-6.8.6-.2-1.6 6.9-.6-3-2.5 1-1.1 5 4.2zM341.8 38l1.2.9-2.4 3.1 6.8-.9.2 1.6-6.8.9 3.1 2.4-.9 1.1-5.1-4z"/>
    <path fill="#b0ebda" d="M359.6 177c6.1.3 15 1.6 21.4 2.3a541 541 0 0 0 44.4 2.6c5.8.1 18.2.3 23.8-.4 7.2 0 19.2-1 26.4-1.9h2.5c1.1-.1 1.2 0 2.2.4 1.4 1.6-1 5.2-1.8 7.1-1.6.4-6.1 1-6.9 1.1q-13.2 1.4-26.4 1.8c-2.6.1-11.8.1-13.7.5-12.7.2-25.3-1-38-1.5-10.4-1.7-25.9-1.7-36.1-4.4q.8-3.9 2.2-7.6"/>
    <path fill="#6fa176" d="M360.5 178.4a541 541 0 0 0 62 5.2c5.3 0 12.3.2 17.4 0q-2.5 2.4-5.2 4.7l-.3.4c-3.6.4-9 0-12.7 0-21.1.2-41.6-3.1-62.5-5.1.4-2 .7-3.3 1.3-5.2"/>
    <path fill="#184049" d="M440.8 183.6c2.6-.5 8.2-.3 11.1-.5 7.3-.5 20.8-.7 27.8-2.3l-2 5c-8.2 1.4-19.5 1.8-28 2.4-3.7.3-11.7.7-15.3.5l.3-.4q2.7-2.3 5.2-4.7z"/>
    <path fill="#19433e" d="M439.9 183.6h1v.6c-2 2.3-3 4.4-6.2 4.1q2.7-2.3 5.2-4.7"/>
    <path fill="#6fa176" d="M327.5 174.3c.1-1.6 2.5-11 3-13.8 1.7-8 2.1-15 3.2-22.9 0 1.7-.3 3 .6 4.3v.2c-.3 5.8-1.9 12.3-2.6 18-.3 2.3-2 8.4-1 10 2.1 1.4 7 1.8 9.7 2.3a530 530 0 0 0 88.4 8.3c2.8 0 9.6 0 12 .2l-.2.4c3 .4 5.7 0 8.6.2-5.6.7-18 .5-23.8.4a541 541 0 0 1-44.4-2.6c-6.4-.7-15.3-2-21.4-2.3q-1.4 3.7-2.2 7.6c10.2 2.7 25.7 2.7 36.1 4.4l-1.4 1c-6.6-.2-19.4-1.8-26-2.7-9.5-1.3-24.7-3-34-5.3-.9-1.8-3-7.1-4.6-7.7"/>
    <path fill="#6c9b90" d="M336.3 114.9c-.4 10-1 18-1.4 22.3 0-1.8.3-2.8-.5-4.2a426 426 0 0 0-6-97.5q1.2-.5 1.6-.3a424 424 0 0 1 6.3 79.7"/>
    <path fill="#092b2c" d="M440.8 181c10.1-.4 20.8-1.4 30.9-2l3.7.1.2.5a278 278 0 0 1-26.4 2c-3-.2-5.6.1-8.6-.3z"/>
    <path fill="#377171" d="M452.4 49.2c2 0 17.5 2.6 19 3.4l-.3.6.4.8q-4.6-1.3-9.7-2.1-4.8-1-9.1-1.5l-.5-.1.8-.3z"/>
    <path fill="#255d48" d="M334.4 133c.9 1.4.6 2.4.6 4.2q-.2 2.3-.8 4.7c-.8-1.3-.5-2.6-.5-4.3.1-1.7.4-2.9.7-4.6"/>
    <path fill="#0b1520" d="M335.6 54.1c3.5-.2 9.4-1 13.1-1.5q11.1-1.2 22.2-2c26.4-1.9 59.7-1 86 3.3a286 286 0 0 1 34 7.5c2 .6 6.2 1.7 8 2.4a161 161 0 0 1-3.5 109l-.4 1c-7.3 1-17.6 2.7-24.8 2.8-4 .6-12.2 1.2-16.1 1.2-3.7.5-13.4.4-17.6.5-26.9.3-54.1-2.1-80.7-5.7-7.8-1-15.7-2.6-23.4-3.9 2-8.3 2.4-15.1 4-22.9v-.8l.5-3.7c0-1.1.4-3.4.6-4.6l-.1-.7c.6-11.1 1.7-22 1.3-33.1q-.4-5.9-.3-11.8a343 343 0 0 0-2.8-37"/>
    <path fill="#79904c" d="M490.9 61.4c2 .6 6.2 1.7 8 2.4a161 161 0 0 1-3.5 109l-.4 1c-7.3 1-17.6 2.7-24.8 2.8-4 .6-12.2 1.2-16.1 1.2-3.7.5-13.4.4-17.6.5-26.9.3-54.1-2.1-80.7-5.7-7.8-1-15.7-2.6-23.4-3.9 2-8.3 2.4-15.1 4-22.9v-.8l.5-3.7c0-1.1.4-3.4.6-4.6l-.1-.7c.6-11.1 1.7-22 1.3-33.1q-.4-5.9-.3-11.8c.2 1.4.2 6 .7 6.6l1.9-.7c1.1 0 1.2.2 2.2.8 8.4-.1 9.4-1 18.7.4-4.2 4.8-9 12.9-5 19.3q.3 2.1 1.4 4.1l.2-.1c1 .6 1.3 2.5 2 3.5 3.7 4.5 8.4 8 14.2 9 2.2.5 6-.1 8 1-.5 3-12.4 2.8-12.7 5.7 1.4 2.5 12 6.2 15 7.1a108 108 0 0 0 53.3 4c1.9-.4 7.3-.4 8-2.5-1.7-.7-4.6.8-6.3 1q-6.9 1-13.8 1.7c.6-.4 14.5-2.2 16.6-2.8a48 48 0 0 0 13.5-6.4c5.2-3.4 5.4-8.7 9.7-12.5 6.1-5.2 15-5.4 19-12.7 2.9-4.8 1-25.6 1.8-26.8l1.2-.2 2.6.4v.5c1.4 1.4 5.4 1 7.3 1q2.1.1 4.1.4l-1.7-.6h1.6c1.6-1.2 1.3-2.7.3-4.2-1.2-2-2.3-1.9-4.4-2.3.8-1 .5-.9.5-2.5 1.2.3 1.8.5 2.8-.2.8-1.8 0-3.9-1.5-5.1.3-1 0-1.3-.3-2.4 1-1.8-.4-6.1-2-7.4l-.4-.3c0-.6.1-.3-.1-.9l-6.2-2c-.9-1.9-.8-1.9.2-3.6"/>
    <path fill="url(#e)" d="M336.4 145c1.6 1.9 2.2 3 4.2 4.4a20 20 0 0 0 6.4 3c1 2.5 1.9 5.2 3.8 7.1l.9-.2c4-1.3 2.8-5.1 6.8-2.7 1 .6 3.6 1.1 4.8 1.4a25 25 0 0 0 9.2 7.8c3-1.5 7-6.3 9.6-8.8 12.1 6 29 7.6 42.4 8.2 2.7 0 7.2-1 10-1.3 1.7 1.8 3.8 4.4 6 5.2h.2c3.5 1.8 7.2-4.2 9.7-6.5 7.3 3.7 8.4 2.5 14.7-2 2.1.9 4.2 1.3 6.4 2.2a29 29 0 0 1-11.8 11.2 48 48 0 0 1-9.4 3.6l3.8.2c-3.7.5-13.4.4-17.6.5-26.9.3-54.1-2-80.7-5.6-7.8-1-15.7-2.7-23.4-4 2-8.2 2.4-15.1 4-22.9z"/>
    <path fill="#5a6940" d="M336.4 145c1.6 1.9 2.2 3 4.2 4.4a20 20 0 0 0 6.4 3c1 2.5 1.9 5.2 3.8 7.1-5.1.5-3.8-3.2-6.3-5.2-4.8-3.7-5.3-2.9-8.2-8.5z"/>
    <path fill="url(#f)" d="M490.9 61.4c2 .6 6.2 1.7 8 2.4a161 161 0 0 1-3.5 109l-.4 1c-7.3 1-17.6 2.7-24.8 2.8-4 .6-12.2 1.2-16.1 1.2l-3.8-.2c4-1 5.8-1.9 9.4-3.6l.5.4q1.5.2 3-.6c6.9-3.6 9-4.6 11.8-11.8 11.7-6.3 12-26.5 8.5-37.6 2-2 3.2-3.5 4.4-6.1a45 45 0 0 0 1.7-24.6l-.8-2 .2-.4 1.6.2c1.4 1.4 5.4 1 7.3 1q2.1.1 4.1.4l-1.7-.6h1.6c1.7-1.2 1.3-2.7.3-4.2-1.2-2-2.3-1.9-4.4-2.3.8-1 .5-.9.5-2.5 1.2.3 1.8.5 2.8-.2.8-1.8 0-3.9-1.5-5.1.3-1 0-1.3-.3-2.4 1-1.8-.4-6.1-2-7.4l-.4-.3c0-.6.1-.3-.1-.9l-6.2-2c-.9-1.9-.8-1.9.2-3.6"/>
    <path fill="url(#g)" d="M490.9 61.4c2 .6 6.2 1.7 8 2.4a161 161 0 0 1-3.5 109l-.4 1c-7.3 1-17.6 2.7-24.8 2.8 3.1-1.5 11.4-1.7 15.4-2-1.2-.8-1-.4-1.5-1.6 3.8-1.6 10.6-16.3 11-20.6 1-4 3-10.5 3.7-14.3a122 122 0 0 0 .7-42.2c-.2-1-.5-1.7.2-2.5q1.2.1 2.3-.5l-1.7-.6h1.6c1.6-1.2 1.3-2.7.3-4.2-1.2-2-2.3-1.9-4.4-2.3.8-1 .5-.9.5-2.5 1.2.3 1.8.5 2.8-.2.8-1.8 0-3.9-1.5-5.1.3-1 0-1.3-.4-2.4 1-1.9-.3-6.1-2-7.4l-.3-.3c0-.6.1-.3-.1-.9l-6.2-2c-.9-1.9-.9-1.9.2-3.6"/>
    <path fill="#0c0d10" d="M495 152.4c-.5.7-1.4 3.2-1.9 4.3-1.7 4.4-4.8 12.3-8.6 15.2l-.3-.2c.1-2.6 6-15.2 7.5-19.6a170 170 0 0 0 5.5-18.9 77 77 0 0 0 2.1-19.2c-.1-4.1-1.6-15.7-1.2-19 1.5-.5-.3.2 1.5.9 2.6 11.3 1.5 30.7-.8 42.2-.8 3.8-2.7 10.2-3.7 14.3"/>
    <path fill="#010203" d="m425.1 153.2-.5.1-.3.1 1.3-1a20 20 0 0 1 14.5-2.1h-.1q-6.9 1-13.8 1.7c.6-.4 14.5-2.2 16.6-2.8a48 48 0 0 0 13.5-6.4c5.2-3.4 5.4-8.8 9.7-12.5 6.1-5.2 14.9-5.5 19-12.7 2.9-4.8 1-25.6 1.8-26.8l1.2-.2 2.6.4v.4l-1.6-.1-.2.4.8 2c2.1 5.3.8 19.2-1.7 24.5a17 17 0 0 1-4.4 6.1c3.4 11.2 3.2 31.4-8.5 37.7-2.7 7.2-4.9 8.1-11.9 11.8q-1.4.7-3 .6l-.4-.5c5.7-3 8.2-5.9 11.8-11.1-2.2-1-4.3-1.3-6.4-2.3-6.4 4.6-7.4 5.8-14.7 2-2.5 2.4-6.2 8.4-9.7 6.6h-.2c-2.2-.8-4.3-3.4-6-5.2-2.8.3-7.3 1.3-10 1.2-13.5-.5-30.3-2.2-42.4-8.1-2.6 2.5-6.6 7.2-9.6 8.7-4.6-2.3-6-3.9-9.2-7.7-1.2-.3-3.8-.9-4.8-1.5-4-2.4-2.9 1.5-6.9 2.7l-.8.3c-2-1.9-2.7-4.6-3.8-7.1-2.8-.8-4-1.5-6.4-3 .3-1 .2-1.2 1-2a20 20 0 0 0 6.5 3.4c1.4 2.3 2 4 2.8 6.6 1.5-2.5 2.5-4.8 4.2-7.3a20 20 0 0 0 10.3 2.9c2.3 3 4.2 5.6 6.8 8.5 4.2-4.8 3.5-6.2 9.8-10.4 3.4 2.8 6.1 2.6 10 4a96 96 0 0 0 45.4 4q2.4 3.2 4.2 6.9c3.3-3.4 6-6.5 9-10.2a23 23 0 0 0 6.5 5.5c3.2-2 5.2-3.2 8.2-5.4 3.5 1.5 6.2 2.5 9.7 3.7q2.3-2.3 3.8-5.1c5.6-10 5.3-18.7 2.4-29.2-3.8 1.8-13.6 6.4-15.3 9.7-7.8 14.6-21.6 17.1-37.5 18.7-17 1.6-47-2.3-60.6-13.9 5-2 10.1-2.7 15.3-4.7-5 0-8.4 0-13.1-2a21 21 0 0 1-11.8-11.5l.3-.1c1 .6 1.3 2.4 2 3.4 3.7 4.6 8.4 8.1 14.2 9.2 2.2.4 6-.3 8 .9-.6 3-12.5 2.7-12.7 5.7 1.3 2.5 12 6.1 14.9 7.1 20.7 7 41.6 5.3 49.8 4.3l3.6-.4s-1.8.7-4 1c-2.8.3-8.7.3-9.2.5"/>
    <path fill="#5a6940" d="M355.6 151.9a21 21 0 0 0 9.2 3.2c2.3 3.8 4 6.5 7.6 9 3.4-3 5.6-7 9-10.2 10.7 5.5 30 8.8 42 8.8 4.2 0 8.9-.8 13-1 1.5 2.2 3.1 4.8 4.7 6.9 2-.3 7.8-7.3 9.5-9 2.2 1.8 3.4 2.6 6 3.7 3.8-1.2 5.7-2.4 8.6-5 2 .9 6 1.9 6.8 3.3l-.5 1.2c-2.1-1-4.3-1.3-6.4-2.3-6.3 4.6-7.4 5.8-14.7 2-2.5 2.4-6.2 8.4-9.7 6.6h-.1c-2.3-.8-4.4-3.4-6-5.2-2.9.3-7.4 1.4-10 1.2-13.5-.5-30.4-2.2-42.5-8.1-2.6 2.5-6.5 7.2-9.6 8.7-4.6-2.3-6-3.9-9.2-7.7-1.2-.3-3.8-.8-4.8-1.5-4-2.4-2.9 1.5-6.8 2.8 1.2-2.4 2.8-5 3.9-7.4"/>
    <path fill="#6fa176" d="m337.7 89.4 1 5.3q0 1.5.4 3c2.2 1.2 1.9.8 4.2.8.4 2-1.5 2.7-1.3 5.3.6 8.6-1.2 19.8.2 28.2l-.3.7h-.6c-1.3.3-2.2.2-3.2 1-.6.8-.5 1.2-.7 2.2a218 218 0 0 0 1.1-36c0-.4.2-.2-.5-.6-1.1-.7 0-2.7 0-4z"/>
    <path fill="#0c2b19" d="M336.9 141.3c1.1 1.8 3.9 4.8 4.7 6.2-.8.8-.7.8-1 1.9-2-1.5-2.6-2.5-4.2-4.4zm4.4-8.5.7.7c0 1.4-3.5 3.2-4.5 3.2l-.1-.7c.2-1.1.1-1.5.7-2.3 1-.7 2-.7 3.2-.9"/>
    <path fill="#5b754d" d="M352.3 120.5c.3 1.4.3 1.8 1.2 3 1.3 1.9 4.2 6.1 5.9 7.5 2.6.5 7 3.9 9.8 4.8l.4.7-.1.5c-3.2 1.1-10.9-2.9-12.8-5.6q-.2-.5-.7-.8l-.3 1.1c-1.4.4-4.2-2.3-5.2-3.3v-.3l5.4 3.8c-2.2-3.7-4.4-4.9-5-9.4 1.4-.2 1.2-.8 1.4-2"/>
    <path fill="#010203" d="m370 137-3-.6a18 18 0 0 1-11.5-8c-1-1.4-2.4-3.3-2-5 1.3 2 4.2 6.2 5.9 7.6 2.3 2.3 7.5 4.3 10.7 5.9m97 .7h-.5q-.1-1 .6-2.8s1-2 4.2-3q.8-.2 1.5.3c.4.8.4.9.2 1.7v.7c-.2 1.3-1.3 2-1.6 2.2-1.8.5-2.4.7-4.4.9"/>
    <path fill="#5a6940" d="M473 134.6v.2q-.5 1.7-1.6 2.7a6 6 0 0 1-4.8.2 28 28 0 0 1 4.7-2.2l1.5-.8zm-122-12.1c-.6-2.7-1.5-8.4.5-10.6.6.4 0 7.1.8 8.4v.2c-.1 1.2 0 1.8-1.3 2"/>
    <path fill="#0b1520" d="M488.4 90c2.5.5 9.9 1.5 11.9 2.3l1.7.6-4-.4c-2 0-6 .3-7.4-1V91l-2.6-.4z"/>
    <path fill="#092b2c" d="m485.8 72.2 9.5 2.2V77a86 86 0 0 0-10.8-2.3c.5-1.4.3-1.8 1.3-2.5"/>
    <path fill="#255d48" d="m495.3 74.4 4 1.2c.3 1 .6 1.4.4 2.4l-4.4-1z"/>
    <path fill="#184049" d="M335.6 54.1c3.5-.2 9.4-1 13.1-1.5q11.1-1.2 22.2-2c26.4-1.9 59.7-1 86 3.3 1.1 1 2.6 3.3 3.5 4.5-2-.6-3-3.4-4-3.7-4.3-1.3-8.8-1.4-13.2-1.9-31-3.6-62.8-2.9-93.8.4-2 .2-6.3.4-7.8 1a11 11 0 0 0-1.7 2.8q.4-.6 1-1c2.4-1 5.5.1 6.6.8-3.5-.3-4 0-5 .7q-.8.7-1.3 1.6h.7c-2.5 5.7-.5 11-.2 17q.4 6.6.5 13.2c0 2.3-.9 5.2-1.1 7.6v.1l-2 .7c-.5-.6-.5-5.2-.7-6.6a343 343 0 0 0-2.8-37"/>
    <path fill="#5a6940" d="M341 96.9c13-4.7 19.5-7.8 33.2-1.3 6.7 3.2 15.5 7.2 18.5 14.2-5.3-2.6-24.4-15.2-29.5-11.4 0 .3.6 1.3.3 1.5-5 4.5-7.7 10-6.7 17.6-4-6.4 1-14.5 5-19.3-9.2-1.5-10.2-.5-18.6-.4-1-.6-1.1-.7-2.2-.8z"/>
    <path fill="url(#h)" d="m476.6 62.8 2.4.9-.3.1-1 .1c-.4 1.9.5 6.3 2.6 7.2l2.2.4c0 1.3 0 1.6-.3 2.8-1.3-.1-1.2-.3-2 .3v.7c-.7 0-5.4 3.4-6.5 4.2-1.8-2.8-4.3-8-6-11l6-4z"/>
    <path fill="#184049" d="m482.5 71.5-2.2-.4c-2.1-1-3-5.3-2.5-7.2h.9c1 1.4.2.5.4 1.4 1.6-.5 14.7 4 17.4 3.8.2-.5.3-.4.8-1 1.6 1.4 3 5.6 2 7.5-1.2-.5-2.8-.9-4-1.2l-9.5-2.2c-1 .7-.8 1-1.2 2.6l-2.4-.5c.4-1.2.3-1.5.3-2.8"/>
    <path fill="#88c0c3" d="m482.5 71.5-2.2-.4c-2.1-1-3-5.3-2.5-7.2h.9q.9 1 .7 1h-.3v.4c.4 1.9.5 3.6 2 4.7l1.4.1c2.2.4 14.5 3.4 15.2 3.2a6 6 0 0 0-1.2-4.2c.1-.4.3-.4.8-1 1.6 1.4 3 5.6 2 7.5-1.2-.5-2.8-.8-4-1.2l-9.5-2.2c-1 .8-.8 1-1.3 2.6l-2.3-.5c.4-1.2.3-1.5.3-2.8"/>
    <path fill="#4b8183" d="m479.9 66 2.2.3c4.2 1 6.1 1.8 10.2 2.7l4 .9a4 4 0 0 1 .8 2.9l-2.1-.4-3.6-.8-2.8-.6c-2-.4-4-1.2-6.2-1.3q-.6 0-1.2-.3c-1-.7-1.3-2.3-1.3-3.5"/>
    <path fill="url(#i)" d="M457 54c3.1.3 14.4 2.4 17.5 3.3l-.6.4c0 1.5-1.2 2.3-2.4 3l-6.2 3.8-4.9-6.1c-.9-1.2-2.4-3.6-3.5-4.5"/>
    <path fill="url(#j)" d="M474.8 61.9c.3-1 .1-1 .7-1.4 1.5 1 6 2.8 7.8 2.4s2.4-1.9 4.4-.9q.8 1.6 1.8 2.9l1.1.2q3 .8 6.2 2c.2.5.2.2 0 .8l.5.3c-.5.5-.7.4-.8 1-2.7 0-15.8-4.4-17.4-3.9-.2-.9.5 0-.4-1.5l.3-.1-2.4-1q-.7-.5-1.8-.8"/>
    <path fill="#75a9a8" d="M479 63.7c6 .9 12 2.6 17.9 4.2l.4.3c-.5.4-.6.4-.8 1-2.7 0-15.8-4.4-17.4-4-.2-.8.5 0-.4-1.4z"/>
    <path fill="#184049" d="M474.6 57.3q8.2 1.8 16.2 4.1c-1 1.8-1 1.7-.2 3.7l-1-.3v-.2c0-.6 0-1.6-.4-2-1.3-2.2-13.3-4.7-14.6-4-.9 2-1 1.6-3 2.2 1.1-.8 2.2-1.6 2.3-3z"/>
    <path fill="#4ade80" d="M392.5 67.2c22-.7 40-.2 61.9 4-7.8 9-15.9 19-23.7 27.7H444c-8.5 9.7-20.4 21-29.6 30.4l18.1.2H444l.3-9.1c3.5 2.3 7.5 5.4 10.9 8.1-.3 3.3-.8 7.5-1 10.8a391 391 0 0 1-42.3.7c-6.9-.2-13.7-.8-20.6-1 10.8-11.2 19.7-19.8 30.1-31.5-3.7.4-9.7.5-13.6.6 7.7-8.8 15.5-17 23-26l3.4-3.4c.3-.2.3-.2-3.4-.3a462 462 0 0 0-25.6-.6l.7 9.4c-4-2.7-8.6-5.5-12.3-8.2q-.4-5.9-1.2-11.8"/>
    <path fill="#e2e4a6" d="M365.8 99.6a110 110 0 0 1 27.5 14.6c.2.1 0 2.2 0 2.5-.8 4-1.8 9-4.3 12.3-5 6.7-16.6 4-22.3-.2s-9.6-12.4-7.2-19.4c1-3 2.1-4.7 4-7.2z"/>
    <path fill="#b2a478" d="M365.8 99.6a110 110 0 0 1 27.5 14.6c.2.1 0 2.2 0 2.5-1.2-.4-4.6-2.7-5.8-3.4q-11.3-7-24-11z"/>
    <path fill="#010203" d="M373.3 115.7c.3-1.7 1-5.1 2.7-5.8 4.9 1.2 3 14.9-.7 18-3 .1-2.8-6.9-2.6-9 1-1 1.2-.9 1.4-2z"/>
    <path fill="#f9f2af" d="M372.7 118.8c-2.2-.5-6.8-.6-7.8-3l.3-.6c1.8-1 6.9-1 8.1.5l.8 1.2c-.2 1.1-.4 1-1.4 2"/>
    <path fill="#182b33" d="M495.7 15c.6.6 2.8 3.2 4 7.6 1.7 7-1.8 9.4-.1 17 .2 1.3 1 3.3 2.5 7.3 2.5 6.3 4.7 10.8 5 11.7 4.2 9.7 6.3 19.5 8.3 29.7 2.2 10.4 2.5 19.3 2.2 30-.1 4.6.2 9.8-.3 14.5-1 6.8-2.8 14.6-4.1 21.4-.5 2.6-2.7 8.2-3.5 11-2.4 7.4-4.9 17-10.3 22.8-3.3 3.5-8 6-11.3 9-3 2.9-4 5.8-8 8.7l-1.5.4c3.7-5 7-11.5 10.3-16.9 5.5-1.5 6.6-3.2 8.9-8.4 16-35.9 17.6-77 7-114.7-2-7.8-5.1-15-8-22.6-1 .7-2.5 1.6-3.2 2.5l.4.5 1.2.1c2 1.6 5.3 13.5 6.5 16.7l-.7.2c-1.3-2.5-10.1-4.5-13-5.4q.2-.4.6-.6l.4-.3.6-.1a15 15 0 0 0-2.4-10.1l-1-.6c-.4 0-.4 0-1.3.5l.3.2c.7 2.2 1.8 4.7 1.2 6.7h-.7V52l-.9.8c-2-3-4.1-8.5-8.3-9.3-5.2-3.1-14.3-4.6-20.5-6.1-.8-.6-2.6-2.1-3-3l.6-.3c4.3 1 8.5 1.6 12.7 3.1a3 3 0 0 0 2.7-.2l-.2-.5c-3-2.2-17.7-4.8-22.4-6-2.4-3-10.6-6.7-14.3-9-1.5-.9-2.6-1-4.1-2.3a216 216 0 0 1 31.8 6.5q2 .8 4 1c.5-1 .3-.5.3-1.7-1.7-2.3-28-7.1-31.6-7.7a274 274 0 0 0-88.9 1.6c-3.7.7-12.3 2.2-15.6 3.6-3.8 6-.9 13.6-.2 20.4.7 6.4 2 13 2.4 19.6l.1 1.6q.4 1.4.5 2.7 0 .8.3 1.6c.1 3 .3 7.4.9 10.2.2 1.2.1 1.5 0 2.8l.2 2c.8 1.2.1 2.5 0 4q.2 1.4-.2 2.7l.4 1.3c.2 2.2.8 8.4.5 10.4l-.8.3c-1.8 1.4-4.8 3.8-6.6 5v-1.4c-.2-1-.2-1.4-.7-2.2l.2-.1-.3-.5c0 1.4.2 4.1-.6 5l-.2.4h-.3l-.2-.4-.3.2a3 3 0 0 0-1.5-1.2c-2.8-.8-6 4-7.7 3q-.2-.1-.8-1.3l-1.6-3.3c-3.3-6.7-4.2-9.8-9.5-15 0-15.8.8-27.8 4.6-43.1 0 0 1.4-9 4.5-14l1.6-2.2c1.1-1.7 3-3 3-3 3.6-3.1 3.7-3.4 6.1-5.3l5-3.7 2.4-1.4C337 13 344 10.4 344 10.4a131 131 0 0 1 18-5.2l1.7-.4a97 97 0 0 1 22.6-2.3 84 84 0 0 1 16.5 1.2l3.9.9 3.3.7 10.7 2.6 9.8 3 4.3 1q1.6.2 5.5 1.5c8 1.1 9.4 2.7 16.8 4.5 0 0 3.4.8 8 .3l2.2-.6a5 5 0 0 0 2.1-1.5l1.5-1.9L472 13q.2-.3 1.6-1.3l1.5-1c.3 0 1.1-.6 2.7-.8l3.7-.4q4.4-.1 5 .2.6 0 2.4.6a18 18 0 0 1 6.8 4.7M332.3 88.7q0-1.2-1.2-1.3c-2.2-.2-4.8-.4-6.2.8l-.5 1.4c1.4 1.5 4.3.5 6.6.4q1.2 0 1.3-1.2"/>
    <path fill="#19433e" d="M466 18q.9-.2 2-.8c1.5-1 2.1-2.1 3-3.2q1.1-1.6 4-3.3a15 15 0 0 1 4.5-1.8c.5 0-6.7 2.8-9.4 8.7 0 0-2.9 6.8 0 16l.2.3a28 28 0 0 1-2.3-15.5l-.6.1-.5.2-1-.2-.8-.3.7-.1z"/>
    <path fill="#182b33" d="M326.6 69.2c.8-.3 3.6-.5 4.5-.7.2 3 .3 7.4.9 10.2l-.2.4c-.9 1-1.4 1-2.7.9-6.6.8-11.7 1.6-18.2 3l-.3-3.8q0-3.6-.3-7 8-1.9 16.3-3"/>
    <path fill="#184049" d="M326.6 69.2c.8-.3 3.6-.5 4.5-.7.2 3 .3 7.4.9 10.2l-.2.4c-.9 1-1.4 1-2.7.9 0-1 .2-.5-.4-1.3l-.5-.3c-.7-2.7.3-7.7-1.6-9.2"/>
    <path fill="#184049" d="M328.7 78.7c1.4 0 1.7 0 3.1.4-.9 1-1.4.9-2.7.9 0-1 .2-.6-.4-1.3"/>
    <path fill="#a8e3e7" d="M308.4 67a125 125 0 0 1 21.8-4.4l.2 1.6.5 2.7q0 1 .2 1.7a185 185 0 0 0-20.8 3.7q.4 3.3.3 6.9l-.6 2.7v.4c-.1-1.5 0-2.8-1-4z"/>
    <path fill="#184049" d="M316 66.7q4.1-1 8.4-1.7c.7 1.3 1 1.6 2.2 2.5l-10 1.6c-.6-.9-.4-.7-.2-2z"/>
    <path fill="#255d48" d="M324.4 65c2.2-.4 3.6-.6 6-.8q.3 1.3.4 2.7c-1 .2-3.3.6-4.2.6-1.1-1-1.6-1.2-2.2-2.4"/>
    <path fill="#19433e" d="M313.2 67.2c0 1 0 1.3.4 2.3l-.1.5c-1.4.1-1.5.5-2.9.3-1-.6-.6-.2-1-1.2 1-1.8 1.7-1.6 3.6-2"/>
    <path fill="#184049" d="m313.2 67.2 1.2-.3 1.6-.2.4.4c-.2 1.4-.4 1.1.1 2l-1.6.7-1.4.2.1-.4z"/>
    <path fill="#88c0c3" d="m313.2 67.2 1.2-.3.3 1.1v1.3l.2.5-1.4.2v-.5c.2-.3-.2-1.2-.3-2.3"/>
    <path fill="url(#k)" d="m325.2 92 7.3-.5c.1 2.2.7 8.4.4 10.4l-.8.3c-1.8 1.4-4.7 3.8-6.5 5v-1.4q-.2-4.5 0-8.8c-.3-1.5-.3-3.5-.4-5"/>
    <path fill="#092b2c" d="M325.5 97c.1-.8.3-3.8.6-4.2 0 .3 1 8 .8 7.9.6.9 4.1.3 5.2 1.5-1.8 1.4-4.7 3.8-6.5 5v-1.4q-.2-4.5 0-8.8"/>
    <path fill="#a8e3e7" d="M332.2 83.5c.8 1.2.1 2.5 0 4q.3 1.4-.2 2.7l.5 1.3q-3.7.4-7.3.4c0 1.6.1 3.6.3 5v8.9c-.2-1-.2-1.4-.6-2.2v-.1l-.2-.4c0 1.3.2 4-.6 5 0-7.4-.7-14.3-.8-21.5 2.6-.5 6.4-.2 8.5-1.3.4-.2.3-1.2.4-1.8m0 4c-2.2 0-5.6-.6-7.2.8-.5 1.1-.4.6-.2 1.8 1.8 1.2 5-.2 7.2.1q.5-1.2.3-2.6"/>
    <path fill="#19433e" d="M332 90.2c-2.2-.4-5.4 1-7.2-.1-.2-1.3-.3-.7.1-1.8 1.7-1.4 5.1-.9 7.4-.7q.2 1.4-.3 2.6m-2.2-.6q.3-.2.3-.7l-.4-.7h-.8q-.5.6-.2 1.1.4.6 1 .3"/>
    <path fill="#76e8e3" d="M329 88.3q.3-.3.7 0 .5.2.4.6l-.3.7a.8.8 0 0 1-.9-1.3"/>
    <path fill="#88c0c3" d="M309 78.3c1 1.2.8 2.6 1 4V82c0-.6.4-2.2.6-2.7l.3 3.8c6.5-1.4 11.6-2.2 18.2-3 1.3 0 1.8.1 2.7-.9l.2-.4c.2 1.2.2 1.5 0 2.8-6.4 0-15.9 2.5-22.6 3z"/>
    <path fill="#75a9a8" d="M492.2 49.6q.7-.4 1.2 0 .6.7 0 1.3l-.8.3a.9.9 0 0 1-.4-1.6"/>
    <path fill="#88c0c3" d="M493.1 52.7q.5-.6 1.2 0 .5.6 0 1.1-.7.4-1.2 0a1 1 0 0 1 0-1.1"/>
    <path fill="#a8e3e7" d="M493.9 55.5q.4-.5 1 0a.8.8 0 0 1-.6 1.4.8.8 0 0 1-.4-1.4"/>
    <path fill="url(#l)" d="M486.5 189.5a59 59 0 0 1-11 16c-.7.4-2 .8-3 1-.4-.9-.4-.8-1.2-1.2-17.2 3.3-35.6 3.4-53 3.7h-4.2l-12.2-.3-12.2-.7c-5.2.5-7.6.7-12.8.3q-2.7-.4-5.3-.4l-1.2-.6c.5-1.2 0-2.1.7-3.2.4-1 1-3.6 1.3-4.8q.5-2.3 1.3-4.3c6.3.1 12.7 1 19 1.4 10.2.6 21.4 1.5 31.6 1.4-.2-.4-.2-.2 0-.7l1-.4q1.7-1.2 3.2-2.6c1.8-.2 4-.2 5.7-.2 10.8 0 21.5-1.1 32.2-1.4h.5c6.5-1 13.1-1.5 19.6-3"/>
    <path fill="url(#m)" d="M486.5 189.5a59 59 0 0 1-11 16c-.7.4-2 .8-3 1-.4-.9-.4-.8-1.2-1.2l4-1c1-1.8 4.5-8 4.1-9.7-1.2-.5-3.6 0-4.9.1-15.4 2.5-31 3.1-46.5 3h-3.8v-.6l1-.4q1.8-1.2 3.3-2.6c1.8-.2 4-.2 5.7-.2 10.7 0 21.5-1.1 32.2-1.4h.5c6.5-1 13.1-1.5 19.6-3"/>
    <path fill="#19433e" d="M425.3 196.7c1.2.5 1.8.3 3.1.2l.2.4-.6.4h-3.7c-.2-.3-.2 0 0-.6z"/>
    <path fill="#6c9b90" d="M375.4 206.5q7.1.6 14.3 1.5c-5.2.5-7.6.7-12.8.3v-.4l1.1-.3v-.3c-1.2 0-1.4-.2-2.6-.8"/>
    <path fill="#5b8767" d="M371 204.1c.8 2.4 2 2 4.4 2.4 1.2.6 1.3.8 2.6.9v.2l-1 .3-.1.4-5.3-.4-1.2-.6c.5-1.2 0-2 .7-3.2"/>
    <path fill="#184049" d="M421.8 199.7c15-.6 30 0 45-2 3.4-.5 7.6-.8 11-1.6q-1.6 3.4-3.7 6.4c-11 3.6-59.1 5.7-71.7 4 1.2-.8 6.1-1.3 8.3-2 3.7-1.1 7.8-3.8 11-4.8"/>
    <path fill="#5b8767" d="M374.2 199c.3-1.1.2-1.4.8-2.1 3 0 11.2.8 14.4 1.1 5.3.6 12.4.7 17.5 1.3 4.6 0 10.8.5 14.9.4-3.3 1-7.4 3.7-11.1 4.8-2.2.7-7 1.3-8.3 2-2 .1-8.1-.3-10.4-.5-6.2-.5-13-1-19-1.8z"/>
    <path fill="#6fa176" d="M374.2 199c.3-1.1.2-1.4.8-2.1 3 0 11.2.8 14.4 1.1 5.3.6 12.4.7 17.5 1.3-3.7.1-6.3.8-9.5 1.2-5 .7-18.8.4-23.2-1.5"/>
    <path fill="#5b754d" d="M326.5 183.5c.9.1 4.4.7 5.1 1l1.7.4 4 .6c3.9 4.6 21 11.1 27.7 12.4 1.6.3 6.5.9 7.4 1.4L371 204c-.7 1.1-.3 2-.7 3.2l1.2.6c-2.5.6-4.4.2-6.7.9l3.2 1.6c-6 0-16.7-1.7-22.9-2.6l-2.5-.3c-1.6-.5-3.3-.3-5.1-1h-.6a96 96 0 0 1-11.3-21.2l.9-.3z"/>
    <path fill="#5a6c73" d="M326.5 183.5c.9.1 4.4.7 5.1 1l1.7.4 1.4 2.9c-.5.9-.6 1-.9 2q2.8 6.8 6.3 13.5c.6 1.1 1.6 3.6 2.6 4.2-1.6-.5-3.3-.3-5.1-1h-.6a96 96 0 0 1-11.3-21.2l.9-.3z"/>
    <path fill="#010203" d="m326.6 185 .9 2c1.5 3 9.1 17.2 11 19.3l-1 .3-.5-.1a96 96 0 0 1-11.3-21.2z"/>
    <path fill="#4b8183" d="M326.5 183.5c.9.1 4.4.7 5.1 1l-.2.5.6 1.2c-.9 1.8-2.7 1-4.5.9l-1-2.1z"/>
    <path fill="#0c1c1b" d="m331.6 184.5 1.7.4 1.4 2.9c-.5.9-.6 1-.9 2-.5-1.2-1-2.7-1.8-3.6l-.6-1.2z"/>
    <path fill="url(#n)" d="M365 208.8c-5-1.7-15.6-6.6-19.2-10.4v-.4c6-.3 17.2 9.4 24.6 9.3l1.2.6c-2.5.6-4.4.2-6.7.9"/>
    <path fill="#010203" d="M334.7 187.8q3.6 7.2 7.4 14.3c-.8.8-1 .8-2 1.2q-3.4-6.7-6.3-13.5c.3-1 .4-1.1 1-2"/>
    <path fill="#0c1c1b" d="M342 202.1c.7 1 3 5 3.2 5.7l-2.5-.3c-1-.6-2-3-2.6-4.3 1-.3 1.2-.3 2-1"/>
    <path fill="#6fa176" d="M333 101.9c-.3 18-1 33.8-3.8 51.7q-.6.4-.8 1l-6-.8-1.7-.5c-.5-1-.3-1 0-2.3l-.2-1.7c-1.9-5.5.2-12.4.4-18 .3-5.1.9-16-.1-20.7l.2-.4c1.1-.6 1.7-.9 2.6-1.9h.3l.2-.2c.8-1 .6-3.8.6-5l.3.4h-.2c.5.9.5 1.4.7 2.3v1.4c1.9-1.2 4.8-3.6 6.6-5z"/>
    <path fill="#6fa176" d="M323.6 108.3h.3c.4 12.7-1.4 30.5-3.2 42.7l-.2-1.7c-1.8-5.5.2-12.4.5-18 .2-5.1.8-16-.2-20.7l.2-.4c1.1-.6 1.7-.9 2.6-1.9"/>
    <path fill="#c9eacc" d="M324.1 108c.8-.9.6-3.6.6-5l.3.5h-.2q.6 1.2.7 2.3v1.4l-.3 12.7q-.6 11.3-1.9 22.5c-.3 2.8-.8 7.2-1.4 9.8 2.5.3 4.9.5 7.3 1.4q-.6.4-.8 1l-5.9-.8-1.8-.5c-.5-1-.3-1 0-2.3a274 274 0 0 0 3.2-42.6z"/>
    <path fill="url(#o)" d="M337.3 185.5c5.5.6 12.2 2 17.8 2.7a472 472 0 0 0 58.7 5.4c3.6 0 11.5 0 14.7.5q-1.4 1.5-3.2 2.6l-1 .4c-.2.5-.2.3 0 .7-10.3 0-21.4-.8-31.6-1.4-6.3-.4-12.7-1.3-19-1.4q-.8 2-1.3 4.3c-1-.5-5.8-1-7.4-1.4-6.7-1.3-23.8-7.8-27.7-12.4"/>
    <path fill="#5a6c73" d="M413.5 17.8c2 .1 13.3 1 14.5 1.5 1.5 1.4 2.6 1.4 4.1 2.4 3.7 2.2 11.9 6 14.3 9-5.2-.3-12-1.8-17.5-2.3-2.2-.2-12-.8-13.3-1.2l-6.6-.3 2.3-1.7c-.9-.7-.6-.3-1-1.3.5-2.3 4-4.3 3.2-6.1"/>
    <path fill="#296265" d="M329 33.2c-.4-2.6-1.1-5.8.2-8.1V25c2.6-1.6 17.3-4 21.4-4.6q.3 0 .3.2c.1.6.8.4.6 1.2l-.8 1.1a3 3 0 0 0-.7 2.1 2 2 0 0 0 1.3 2q0 1-.3 1.1l-.4.2-.4.5c.7 1 1.1.8 2.3.9-8 1.1-15.2 2.5-23.1 3.7a.3.3 0 0 1-.4-.2"/>
    <path fill="#a8e3e7" d="M335 24.8a3 3 0 0 1 3.6 3.8 3 3 0 0 1-2.2 2 3 3 0 0 1-1.4-5.8"/>
    <path fill="#184049" d="M335 26.3q1.5-.4 2.1.8a1.6 1.6 0 0 1-2.3 2 1.6 1.6 0 0 1 .2-2.8"/>
    <path fill="url(#p)" d="m504.3 151.3.9.5a135 135 0 0 1-12.6 34 157 157 0 0 1-20.3 3.6l-.7-1.2 6.9-1c.9-2 3.2-5.5 1.8-7.2-1-.5-1-.5-2.2-.4h-2.5l-.2-.5-3.7-.1c2.4-.5 11.6-1.4 14.1-1.5h.5q4.9-1.1 9.9-1.8c3-5.8 6.6-18 8-24.4"/>
    <path fill="#184049" d="M381.4 17.4c10.5-1 21.6-.4 32.1.4.7 1.8-2.7 3.8-3.2 6 .4 1.1.1.7 1 1.4-1 1.5-1.5 1.7-1.8 1.7h-2.9l-2.6-.1c-2.2.2-6 0-8.2-.2-4.6-5.3-2.9-8-11-8l1.6-.3-.2.2.1-.5c-1.8-.1-3.1-.4-4.9-.6m-30.8 3 16.4-2-2 .9v.2l4 .1-2.5.4c-4.4.7-4.8 4-5.8 7.5q-.4 1.2-1.5 1.3l-6.9.9h-.3l-2 .3-1 .2q.6-.6 1.3-1.9.3-.5.2-1l-.1-.6-.3-.6-.3-1.4q0-1 .3-1.4l.2-.4.9-1v-.6z"/>
    <path fill="#4b8183" d="M423.1 29.4a278 278 0 0 1 30.6 4.6l-.5.4c.4.8 2.1 2.3 2.9 3-13.3-1.5-23-3-23.8-3.4l-1.5-.7-1-.5q-3.3-1.9-6.7-3.4"/>
    <path fill="#296265" d="M501.7 63.3a168 168 0 0 1 3.5 88.5l-1-.5a165 165 0 0 0 1-71c-1-5.6-3-11.3-4.1-16.8z"/>
    <path fill="#092b2c" d="M431.6 190.5c1.8-.4 11-.4 13.6-.5q13.2-.5 26.4-1.8l.7 1.2a340 340 0 0 1-40.8 2.1z"/>
    <path fill="#5b8767" d="M393.5 189c12.7.6 25.3 1.7 38 1.6v1q-19.7 0-39.4-1.6z"/>
    <path fill="#19433e" d="M367 18.4q7.2-.9 14.4-1c1.8.2 3.1.5 5 .6l-.2.5.3-.2-1.7.3-15.7 1-4-.1-.2-.2z"/>
    <path fill="#255d48" d="M327.5 174.3c1.5.6 3.8 5.9 4.7 7.7-6.2-1.5-6.1-1.4-4.7-7.7"/>
    <path fill="#4b8183" d="M328 178.2q.6-.3 1 0 .6.7.1 1.2-.3.4-.9.3l-.6-.6q0-.5.3-.9"/>
    <path fill="#184049" d="m321.7 175.7 2.7 2.7q-.3 3 2 5l.2 1.6-.9.3a10 10 0 0 0-3-4.5c.2-2 .1-2-1-3.4l-1.3-1.6z"/>
    <path fill="#4b8183" d="M322.9 172c.7.7 1.2 1.6 2 1.8l.3-.1-.8 4.7c-.6-.8-2-2-2.7-2.7l-.7-1c1.4-1.2 1.2-1 1.9-2.8"/>
    <path fill="#f2a231" d="M224.7 260.4c1.3 0 4.4 3 5.7 3.9 9.4 7.1 20.4 12 31.3 16.3 5.5 2.2 10.6 4.5 16.2 6.3 11 3.2 21.5 5.9 32.2 9.6-7.8-.2-32.9-.1-37.2 7.3a38 38 0 0 0-10 5.2 131 131 0 0 1 19.2-5.6c3.3.4 11.8-1.5 13.3-.7l.2.5c-.8.5-.6.3-1.2.5-4 1.5-13.6 3.3-15.7 7l-.7.8c1 0 .7 0 1.7-.4 5.4-2.2 11.2-3.3 16.8-4.6 27.1-5.8 54-5 80.9 1.4 7.2 2.7 16.6 5 22.9 9.3 6.9 5 28.7 39 32.6 47.7 3 6.5 1 13 4.5 19.4q1 1.3 2.3 1.8c2.8.8 5.5-3 7.8-4.1l.2-.1a45 45 0 0 1-13.5 10.3l-.6-.1-.2-.5.7-1.2c-.6-.6-.7-1.8-.9-2.6a37 37 0 0 0-13.7 10.8 34 34 0 0 0-3.7 6.5q.7 1.5 1.7 3l-15.3 4q-4 1-8.3 1.8c-2-.4-4.1-1.7-6-2.8q2.5 0 4.8-.2c2.6-.7 5.5-.7 7.7-2.4 3.1-4 .3-.8 3.8-2 .7-1.4 1.7-3 1.5-4.5q-.6-1.1-2-1.7c-2-1-4.4-1.5-6.6-2.4-2.7-1.2-5.4-2.8-8.2-3.8-3-.9-17.2 1-20 2.5a67 67 0 0 1-15.5 2.9l-7.7-.3c-5.7.2-9.8.9-15.6.3l-4 .7c-4.4.4-9.1 1.4-13.5 1.2a7 7 0 0 1 3.5-2.3 28 28 0 0 1 8-2.7l1.4.5 1.7.4c.8 0 .8 0 1.4-.5v-.7q-.7-.2-1-.8l-.2-.2c1.3-.2 2.5-1 3.7-1.4q3.2-1.1 6.5-1.6c6.9-2.5 14.5-2.2 21.5-3.8 5-1.3 16-2.5 19.6-5 .2-3.6-2.7-6.8-3-10.6-.3-3.2-4.3-10-5.7-13.3.5-4.3 2.9-10 5.7-13.3l1.2-2 1-2-.5-.2-.2-.5q-1.6 0-2.8.9-1.6 1.6-3 3.3-.8 1-1.9 1.3l-.2-.5a9 9 0 0 0 0-3.4v-.3l.4-1.3c1-1 3.7-7.5 4.4-9.3a32 32 0 0 0-12.6 16.8c-11.2-.2-24.5 1.9-36 2.1-12.3.3-25.8 2.6-38.1 1.2a90 90 0 0 1-44.6-16.9c-9.8-6.7-17.3-28.3-19.6-29.5-.7-13-.4-32.4 1.5-45.4"/>
    <path fill="#cf7632" d="M331.1 393.6q3.2-1 6.5-1.5c6.9-2.5 14.6-2.2 21.6-3.8 4.9-1.3 16-2.6 19.5-5 .2-3.6-2.7-6.8-3-10.6-.3-3.3-4.3-10-5.7-13.3.6-4.3 3-10 5.7-13.3l1.2-2 1-2 2-.8q-.1 1.4-1 2.6c-2 3.5-3.5 8.2-5.8 11.5.1 1.8 2.4 4.5 3.4 6.1 2.6 4.2 4.4 9 7.1 13.1a33 33 0 0 0 6 6.8c3.2-.6 23.2-4.6 24.1-4.4-4.9 2-10.6 3-15.8 4.3q-2.9.5-5.5 1.6c0 .5-.2.5.2 1q.8.9 2 1.4c3.3 0 10.1-1 13 .1v.4c-2.2 2-5.7 3-8.5 4 5.1 1.5 9.4.7 14.5.8q-.4.8-.4 1.6.6-.2 1-.8l.8-1q1.4 2.6 3.3 4.8c3.7-4 8.4-8 13.7-9.6 1.6-.5 3.5-.5 5-1.1l.4-.2q1 1.2 2.3 1.8c2.8.8 5.5-3 7.8-4.1l.2-.1a48 48 0 0 1-13.5 10.3l-.6-.2-.2-.4.7-1.3q-.7-1-.9-2.6a37 37 0 0 0-13.8 10.9 34 34 0 0 0-3.7 6.5l1.8 3-15.3 4q-4.1 1-8.3 1.8c-2-.4-4.1-1.7-6-2.8q2.5 0 4.8-.2c2.6-.7 5.5-.8 7.7-2.5 3.1-4 .3-.7 3.8-2 .7-1.3 1.7-2.9 1.5-4.4-.5-1-1-1.2-2-1.7-2-1-4.5-1.6-6.6-2.5-2.8-1.1-5.4-2.8-8.2-3.7-3-.9-17.2 1-20 2.5a67 67 0 0 1-15.5 2.8l-7.7-.2c-5.7.2-9.8.9-15.6.3l-4.1.6c-4.3.4-14.4 2.2-18.7 2 1-1.2 7.3-2.6 8.8-3"/>
    <path fill="#010203" d="M437.4 384.3q1 1.3 2.3 1.8c2.8.8 5.5-3 7.8-4.1l.2-.1a48 48 0 0 1-13.5 10.3l-.6-.1-.2-.5.7-1.2c-.6-.6-.7-1.8-.9-2.6a37 37 0 0 0-13.7 10.8 34 34 0 0 0-3.7 6.5q.7 1.5 1.7 3l-15.3 4q-4 1-8.3 1.8c-2-.4-4.1-1.7-6-2.8q2.5 0 4.8-.2c2.6-.7 5.5-.7 7.7-2.4 3.1-4 .3-.8 3.9-2 .6-1.4 1.6-3 1.4-4.5q-.6-1.1-2-1.7c-2-1-4.4-1.5-6.6-2.4-2.7-1.2-5.4-2.8-8.2-3.8-3-.9-17.2 1-20 2.5a67 67 0 0 1-15.5 2.9l-7.7-.3c-5.7.2-9.8.9-15.6.3 8.4-.6 16.8-1.9 25.1-3 11.5-1.4 23-2.8 34.2-5.3q2.9 2.7 6.6 4.3c4.4 1.6 8.5.7 12.4 4 1.7 1.4 3.1 3.5 4.5 5.2q1.9-5.2 5.4-9.5c3.7-4 8.4-7.9 13.6-9.6 1.7-.5 3.5-.4 5.1-1z"/>
    <path fill="#6b5f50" d="M392.8 410.9c3.4-.2 6-.3 9.2 1.1h.2l-8.2 2c-2.1-.5-4.2-1.8-6-2.9q2.4 0 4.7-.2"/>
    <path fill="#f0c576" d="m433.3 387.8 5-1.4-4.2 4c-.6-.6-.7-1.8-.8-2.6"/>
    <path fill="#010203" d="M378.7 383.4q1.4-.6 3-.7-2.7 1.6-5.5 2.5l-1 .3-.5.2v.5c2.8.2 4.8-1.2 7.5-.6 2-.2 3.2 1 4.7 2a888 888 0 0 1-45.8 8.1q-12.4 2.1-25 3.4c4.7-2.3 10.1-3.7 15-5.5q3.2-1 6.5-1.5c6.9-2.5 14.5-2.2 21.5-3.8 5-1.3 16-2.6 19.6-5"/>
    <path fill="#b17650" d="M378.7 383.4q1.4-.6 3-.7-2.7 1.6-5.5 2.5l-1 .3-.5.2v.5c2.8.2 4.8-1.2 7.5-.6-6.4 1.3-13.4 3.2-20 3.4-8 1.5-16.3 3-24.6 3.1 6.9-2.5 14.5-2.2 21.5-3.8 5-1.3 16-2.6 19.6-5"/>
    <path fill="#010203" d="M375.8 372.7c1.6 3.7 3.2 6.9 5.8 10q-1.5 0-3 .7c.3-3.7-2.6-7-2.8-10.7"/>
    <path fill="#0c0d10" d="m413.7 390.7 2-2.6c5-5.5 11.6-8.3 19-8.7q-2.6 1.1-5.3 1.8a30 30 0 0 0-14.4 9.3l-.8 1q-.4.5-1 .7 0-.8.5-1.5"/>
    <path fill="#bd7a44" d="M377.2 341.4c.9-.7 2-2 3-2.1.3.8 0 1.2-.2 2l-2 .7-.6-.1z"/>
    <path fill="url(#q)" d="m185.6 145.5.4-.3q.2-1.2.9-2l2-4.3 2.1-4 1.6-3.3.3-.2c.8-1 .7-1 .9-2.1l2.8 1.3.8.7 2-1.2c1.8.2 4.6-.4 6.2.4 6.6 3.3 12.7 9.3 18.3 14l16 13.2c-1.3 2.6-4.3 5.8-5.5 8-2.7 4.5-11.7 18.4-12.8 22.7-11.7 14.2-18.5 26.2-16.7 45.3.8 8.7 3.9 12.7 13 12 1.7 2.7 3.2 4.9 5.3 7.1-.2 1.6-.5 5.3-1 6.5-2.1 1-7.8.2-10-.5-6.7-2.2-36-28.6-41.7-34l-.1-.6c1-.7 6.1-.3 6.3-.8h-.3c-2.1 0-5.7 0-7.7-.4-3.5-1.5-2.4-4.8-7.2-3.3l-.3-.6-2.8.2"/>
    <path fill="#010203" d="m175.6 165.6 1-2 .6-1.1q0-.2.3-.3l2.6.5-2 2.8c-1.2.3-1.3.3-2.5 0"/>
    <path fill="#79f6f8" d="m169.7 177.3-7.4 16.6q-1.4 3.3-3.2 6.6"/>
    <path fill="#a8e3e7" d="m159 200.5-1.5 5.2v.2c0 .9 0 3.2.2 3.9l-1.2.2 1 1.3h1l-.1.2-.5.5c.5 1.6.7 2.1 1.5 3.6l.3 1.2h3.5l2-.1c2-.2 10-2.7 20.7-6.8l-2.7 3.7-4.2 1.2a84 84 0 0 1-17.8 4.3l-2.8.2"/>
    <path fill="#79f6f8" d="m159 200.5-1.5 5.2v.2c0 .9 0 3.2.2 3.9l-1.2.2"/>
    <path fill="#62bee1" d="m156.5 210 1 1.3h1l-.1.2-.5.5c.5 1.6.8 2.1 1.5 3.6l.3 1.2"/>
    <path fill="#75a9a8" d="m185.6 145.5.4-.3 2 1.6c1 1 1.5 1.6 2.3 2.8q-.7.6-1 1.3c-1.4 3-3.6 7.4-4.7 10.3l-3.6-.7-2.9-.1 1.5-3-.2.4-.8 1.7-3 6-1.3 2.7"/>
    <path fill="#010203" d="m185.6 145.5.4-.3 2 1.6c-1.8 3.6-5.6 10.3-7 13.7l-2.9-.1 1.5-3m-3 10.2.7.3c0 .9-2.4 5.3-3 6.4l-8.9 19.6c-1.6 3.5-3.7 7-4.9 10.7q-.4 2.3.5 4.5-1.7.2-3.3.7l-.3-4v-.4l.7-2 .9-3 .5-1.1 1.1-2.8 1.4-2.8 11.5-24q.4-1 1-1.8z"/>
    <path fill="#6c9b90" d="M176.6 167.6c.5-.2 3.7-.5 4.5-.5-3.2 7.7-20.1 35.4-18 41.7l-2.1.3q-1-2.3-.5-4.5c1.2-3.6 3.3-7.2 4.9-10.7l9-19.6c.5-1.2 2.8-5.5 3-6.4z"/>
    <path fill="#acece9" d="m177.5 162.2-.3.3.4-1 .5-1.1 2.9.1 3.6.7q4.6 1.2 9.4 2c5 .9 4.6 6-1.2 5.4l-.9-.1c-1-1-.8-1.1-1.2-2.5l-.5-.2c0 .7.1.3-.3 1-1.7.4-4.1 0-6-.3l-2.8.6c-.8 0-4 .3-4.5.5l-2 .3.7-2.2.3-.1c1.2.2 1.3.2 2.6 0l1.9-2.9z"/>
    <path fill="#b0ebda" d="m180 162.7 2.7.5c.2 1 0 1.3.7 1.7 1 0 2.7 0 3.5.6v.4c-.8.4-.8.3-1.6.3l-1.4.3-2.8.6c-.8 0-4 .3-4.5.5l-2 .3.8-2.2.2-.1c1.2.2 1.3.2 2.6 0z"/>
    <path fill="#75a9a8" d="m180 162.7 2.7.5c.2 1 0 1.3.7 1.7 1 0 2.7 0 3.5.6v.4c-.8.4-.8.3-1.6.3v-.7c-1.6-.3-5.2 0-7.1 0z"/>
    <path fill="#296265" d="M182.7 163.2c3.4.6 7.3.3 9 3.7l1 1.7-.8-.1c-1-1-.8-1-1.2-2.5l-.5-.2c.1.7.1.3-.3 1-1.7.5-4.1 0-6-.3l1.4-.3c.8 0 .8 0 1.5-.3v-.4c-.7-.6-2.4-.5-3.4-.6-.6-.4-.5-.7-.7-1.7"/>
    <path fill="#acece9" d="M187 198.5c1.1-.2 2.4.5 3 1.7.7 1.4-.1 3-1 3.8q-.3.5-1.3.6c-1.3.2-2.2-1.4-4.6-.2a68 68 0 0 1-19.8 6l-3.3.7-1.5.2h-1l-1-1.3 1.2-.3 3.2-.6 2.1-.3a84 84 0 0 0 11.5-3c5.8-1.9 8.7-2.9 10-5 .6-.8 1.2-2 2.5-2.3"/>
    <path fill="#6c9b90" d="M192.9 131.4c1.2 0 4 2.5 4.7 3.6a109 109 0 0 0-6 12.4l-2.3-2.6-2.4-1.6 2-4.3 2.1-4 1.6-3.3z"/>
    <path fill="#0c0d10" d="m191 134.8 2 .6c.8 1.6-2.9 7.3-3.7 9.4l-2.5-1.6q1-2.3 2.2-4.3z"/>
    <path fill="#acece9" d="m183 219.9.2-.1c1.1-.3 1.3-.3 2.2-.9l1-1.6c2.9-4.8 6.7 1 4.8 3.2-.7.8-2.1.7-3.4.6-2.6-.1-6.3.3-11.2 2.4l-1.1.2-5.1.5-1.7-1.1 3-.2a12 12 0 0 0 5.5-1.5c1.5-.6 3.4-.6 5.7-1.6"/>
    <path fill="#b0ebda" d="m195 129.8 1.5.8h.1l.7.6.1.1q1.5 1.5 2.6 3c1.3 2 1.8 3.2 3.1 5.6l2.5 3.8q.3.3.8.4h1.7q.5 0 .8.3c0 .2-.4.4-.4.8a1 1 0 0 1-1 1.2c-.7 0-.9 0-2.1-.4q0 .4-.2.7c-.2-.8-6.8-10.7-7.6-11.7-.6-.8-2.3-2.4-3.6-3.2a1 1 0 0 1-.4-1.4 1 1 0 0 1 1.4-.6"/>
    <path fill="#acece9" d="m188.5 208.5.8-.1q.5-.1.6-.6l.5-.8.7-.7c1.2-.2 1.2-.2 2.3.2 1 .7 1.2.8 1.6 1.9q-.2 1.7-.9 2.1c-1.8 1.7-3.6-1-7.6 1q-.5.5-2.4 1.7l-1 .4-.1-.8a12 12 0 0 1 2.8-2.9q1.6-1 2.7-1.4m-1.6-65.3 2.4 1.6 2.3 2.6c1 1.8 2.6 4.2 2.1 6-1.3 1-2.5.4-3.6-.7-.2-1-.1-1.2-.8-1.8q.3-.7 1-1.3c-.8-1.2-1.4-1.8-2.3-2.8l-2-1.6q.2-1.2.9-2"/>
    <path fill="#296265" d="m190.3 149.6-.2 3c-.2-.8-.1-1-.8-1.7q.3-.7 1-1.3"/>
    <path fill="#0c1c1b" d="m160 211.1 1 .3 2.2 5.4h-3.5l-.5-1-.9-2-.8-1.7-.4-.9-.6-1.2 1 1.2h2.6"/>
    <path fill="#6c9b90" d="M160 211.1c.5-.2 2.7-.5 3.3-.6.2 1.6.1 5.6 1.9 6.2l-2 .1-2.3-5.4z"/>
    <path fill="#6fa176" d="M199.2 150.2c9.8 6.3 19 14.2 28 21.5q-10.3 2.7-20.7 4.7l6.6 4.5c-7.2 1.8-15.2 2.8-22.6 3.6q6.7 5.4 13.7 10.7l2.8-4.8q1.6 4.2 2.8 8.5-1.5 2.5-3.4 4.9h-.2c-2.5-.7-24.8-19-28.7-22.2q10.8-2.3 21.7-4.4l-6.8-4.5q10.8-1.9 21.6-4.1-6.6-4.8-13-9.8l-2.6 4-3.3-6.8z"/>
    <path fill="#cf7632" d="M223.2 305.8c2.4 1.2 9.8 22.8 19.6 29.5a90 90 0 0 0 44.6 17c12.3 1.3 25.8-1 38-1.3 11.6-.3 25-2.4 36.1-2.1a32 32 0 0 1 12.7-16.8c-.8 1.7-3.6 8.3-4.5 9.3l-.4-.3-.6.2c-2.5 3.2-4.2 11-4.7 15.1-9.3-.7-16.5 2-25.4 3-15.2 1.5-31.8 4.4-47 5.2-14.4.7-40.6-4.5-51.2-14.3-11.4-10.6-16.8-29.1-17.2-44.5"/>
    <path fill="#acece9" d="M486.5 189.5c.7-.5 1.4-.3 2.4-.3-3.2 5.4-6.6 12-10.3 16.9l1.6-.4c-7.4 7-24.4 9-34.3 9.7-5.2 1.2-11.8 1.8-16.5 4.2-1.5.2-4-.7-6.4-.3l-14 3c-.5-1.2-.8-2.2-1.9-3-.7 0-.5 0-1 .3l-3-4.4c-1.5-.2-6.3-.2-7.8-.2q-12.7-.7-25.4-1.8c-7.6-.7-15.4-2-23-2.6l-2.5-.4q-1.3-.3-2.8-.3c-2-.5-3-.5-5.2-.6l-3.1-.8-7-1.1-2.9-.5c-1.8-.3-4-1-5.8-.7l-1.2 1-2.4-1.7q.7-3.2 1.8-6.4h.3c.8.5 1 .8 1.9 1 .5 1.2.6 1.2 1.6 2a11 11 0 0 0 4.2 2.3l4.2.8q4.5.8 9 1.3h.6c1.8.7 3.5.5 5.1 1l2.5.4c6.2.8 16.9 2.5 23 2.5l-3.3-1.6c2.3-.7 4.2-.3 6.7-1q2.6.1 5.3.5c5.2.4 7.6.2 12.8-.2q6.1 0 12.2.6l12.2.4h4.2c17.5-.4 35.8-.5 53-3.7.8.3.8.3 1.3 1q1.6-.2 3-1c2.6-1.3 10.5-14 10.9-15.9"/>
    <path fill="#182b33" d="M403 215.2q13.6.3 27.2-.4l13-.8q.9 1.3 2.7 1.4c-5.2 1.2-11.8 1.8-16.5 4.2-1.5.2-4-.7-6.4-.3l-14 3c-.5-1.2-.8-2.2-1.9-3-.7 0-.5 0-1 .3z"/>
    <path fill="#19433e" d="M371.6 207.9q2.6 0 5.3.4c5.2.4 7.6.2 12.8-.3l12.2.7.3.5-.3.5c-1 1.8-2 2-2.7 3-3 .3-10.3-.5-13.4-.8q-8.8-.3-17.7-1.6l-3.2-1.6c2.3-.6 4.2-.2 6.6-.9"/>
    <path fill="#5b8767" d="M402 209.7c-1.1 1.8-2.1 2-2.8 3-3 .3-10.2-.5-13.3-.8 1.7-.2 2.2-.8 3.7-1q6.1-1.2 12.4-1.2"/>
    <path fill="url(#r)" d="M414.1 209h4.2c17.5-.3 35.8-.4 53-3.6.8.3.8.3 1.3 1a204 204 0 0 1-45.2 6.3c1.4-.8 3-.9 4.6-1.4v-.8l1.2-.8-.6.5.6-.5c-1.2-.8-17.5.5-19.1-.6"/>
    <path fill="#184049" d="m402 208.7 12.1.4c1.6 1.1 18-.2 19.1.6l-.6.5.6-.5q-.4.5-1.2.8.2.5 0 .8c-1.6.5-3.2.6-4.6 1.4-8 .3-20.5.7-28.2 0 .7-1 1.7-1.2 2.8-3l.2-.5z"/>
    <path fill="#092b2c" d="m478.6 206 1.6-.3c-7.4 7-24.4 9-34.3 9.7-1-.2-2.2-.4-2.7-1.4 7.8-1.2 29.6-2.7 35.4-8"/>
    <path fill="#c9eacc" d="M316.1 199c.8.6 1 1 1.8 1.2.6 1 .7 1 1.7 1.8a11 11 0 0 0 4.2 2.4c-1.7 0-4.7.2-6.1-.6-.7-.6-.6-1.5-.7-2.5l-.6-.8-.4.1c-.5 1.2-.5 1.4-.8 2.7 1.3 3 5.7 1.4 7.8 3.3l.4.3c-1.8-.4-4-1-5.8-.7l-1.2 1-2.4-1.7q.7-3.2 1.8-6.4z"/>
    <path fill="#5a6c73" d="M300.1 39.3q-2.1 9-3.7 17.9a339 339 0 0 0-2.8 35q.1 1 .8 1.9c5.5 7.6 12.3 17.2 12.2 27.2l.3 2.6c1.5 8.2-1 19-3.8 26.8 3 7.4 11.7 19.5 17.3 25.1l1.3 1.6c-1.2 2.3-1.1 4.8-1.6 7.2l-.2-1.1c.2-1 .3-1.3-.2-2-3.2-5.4-7.5-10.2-11-15.4q-6.8-9.7-12.2-20a24 24 0 0 0 3.9-14.7c.3-9.1-4.5-22.8-11-29.2-1.3-7-1.8-16-1.9-23.3a80 80 0 0 1 4.3-29.2c1.3-2.7 6.1-8.2 8.3-10.4"/>
    <path fill="#88c0c3" d="M294.4 94c5.5 7.6 12.2 17.1 12.1 27v.5l.7 4.7-3.2-6-.4-1c-2-8.4-5.4-14.4-9.3-22q-.7-1.7 0-3.1"/>
    <path fill="#cf7632" d="M225.4 255c6.5 6.5 13.2 9.6 20.9 13.8a233 233 0 0 0 73 24.3c2.5.4 20.7 3.5 21.5 4 2.1 1.8 6.4.5 10 2.4h-1.4a86 86 0 0 0-19.6-.3q-5.6.1-11 .9c-3 .3-6.8 1-9.7 1-3 .1-7-1.2-10.2-1.5a68 68 0 0 0-26 4.3c4.3-7.5 29.4-7.6 37.2-7.4-10.7-3.7-21.3-6.4-32.2-9.5q-8.2-2.9-16.2-6.3a140 140 0 0 1-31.4-16.4c-1.2-1-4.3-3.8-5.6-3.8z"/>
    <path fill="#eacd58" d="m316.4 207.2 1.2-1c1.7-.2 4 .4 5.8.7l3 .5 6.9 1q-.3 1-.1 2l-.8.6c1.4.8 6.2 3.7 7.4 3.8 1.8 1 6 1.7 9 3 22.7 9.4 34.1 10.2 58 7.8l-1.5 2c-3 4.2-8.9 5.7-13.7 6.3a95 95 0 0 1-21 0c-19.3-4.4-38.6-15-54.2-26.7"/>
    <path fill="#092b2c" d="m326.3 207.4 7 1.1q-.3 1-.1 1.9l-.8.6c-1.2-.5-5-2.9-6-3.6"/>
    <path fill="#d1a23f" d="M409.5 241.7c6.8-.2 7 3 13.1 4.2l.2.6c-1.4 1.9-3.7 3.2-5.3 5.2-.4 4-.6 7-.2 11 .6-2.2 1.6-8.8 2.4-10l.3.3c1 .8 3.1 1.9 4 3 3.2 4.1 1.5 9.5 5 13.3 1.4 1.6 2.1 1.6 3.6 2.8q-1.2 1.2-2.7 2.2c-1.2-.3-3-.7-4-1.5-3.1-2.3-1.5-11.5-4.2-13.4l-.5.3c-.3 2.7 1 10 1.5 12.8l2.3 2.1-1.8 10.2c-1.2-.9-1.8-1.4-2.8-2.5-.8-1-2.6-4.9-3.4-5.3q-.1 2 .7 3.8l-10-1.7c7.7-6 4.8-10.7.2-18q2.1-4.7 3.6-9.7c-2-2.4-4.6-3.5-7-5.9 1.7-1.7 3-2.4 5-3.7"/>
    <path fill="#182b33" d="m239.9 157.7 10.8 8.1c-5.2 10.7-7.9 18.5-11.9 29.4-5.2-4-7.5-7.3-13.8-8.6-1 .6-2.4 1.5-3.4 1.9 1-4.4 10-18.2 12.8-22.9 1.2-2 4.2-5.3 5.5-7.9"/>
    <path fill="url(#s)" d="M314 114.2q3.5-1.6 6.8-3.6c1 4.8.4 15.6.2 20.8-.3 5.5-2.4 12.4-.5 17.9q.3.8.2 1.7c-.3 1.4-.5 1.3 0 2.3l1.8.5 6 .9.4.5c0 2-1.1 6.4-1.6 8.5-.5 2.6-1 6.4-1.9 8.9l-.2 1-.3.2q-1-.4-2-1.9l-1.8-2 1.9-.6a94 94 0 0 1-12.5-19 91 91 0 0 0 3.5-36.1"/>
    <path fill="#6fa176" d="m322.5 153.8 5.9.9.5.4c0 2-1.1 6.5-1.6 8.6l-.1-.3a38 38 0 0 1-4.7-9.6"/>
    <path fill="#092b2c" d="m323 169.3 2.4 3.2-.2 1.2-.3.1q-1-.4-2-1.9l-1.8-2z"/>
    <path fill="#eacd58" d="m270.1 140.7 2.6-.7c4 5.4 6 11.8 9.1 17.7 9 17 16 24.3 29.6 37.6.9.8 3.6 3.3 4.4 3.8q-1.1 3.1-1.8 6.4c-3.8-3-7.1-6.7-10.6-10a107 107 0 0 1-30.5-45.7c-.8-3-2-5.9-2.8-9.1"/>
    <path fill="#494f60" d="M314 193.6a135 135 0 0 1-34.2-45.5c4.2 2.2 5.7 2.8 10.5 2.8l.8.2.6 1.6a249 249 0 0 0 19.1 30c2.2 2.5 4 7.3 5.3 10.4.2 1.2.4 1 0 2-1.2-.4-1.4-1-2.1-1.5"/>
    <path fill="url(#t)" d="M291.7 152.7a249 249 0 0 0 19.1 30c-.3.1-.6.4-.9.1a92 92 0 0 1-18.8-28.8z"/>
    <path fill="#686a74" d="m290.3 151 .8.1.6 1.6-.6 1.3c-.6-1.3-.9-1.7-.8-3"/>
    <path fill="#eacd58" d="M448.4 249c2.7 1.2 7.3 3.9 8.7 6.5 1 1.7-1.8 5-2.2 7-1 4.5 3.9 11.3.2 15.1-3.8-.2-10.2 2.6-13.6 1-3-1.5-1.7-8.2 0-10.5a24 24 0 0 0 6.5-1.1l-.5-.8 1 .4c-1-.6-2.6-.5-3.8-.6-1.5-3.8-1-8-2-11.7l3.6-1c2.6-.8 2.3-2 2.1-4.3"/>
    <path fill="url(#u)" d="M346.8 210.6c7.6.6 15.5 1.9 23 2.6q12.8 1.2 25.5 1.8l.6.4-3.8 2.6c-6 3-10.5 6.1-17.2 4.8a78 78 0 0 1-24.2-7.5c-.9-.5-3.2-3.9-3.9-4.8"/>
    <path fill="#323a3d" d="M426.4 275.6c1.9.4 3.4.7 5.3.9-3.2 3.4-4 4.7-5 9.4 2.4 3.5 6.5 8.2 11 9l.2.3c-.3 2.8-.1 5.5-3 6.6-5.3.3-9.3-2.4-13.8-4.7q-7.6-3.8-15.3-7.3c1.2-3 1.2-5 1.4-8.3 4.4 3 10.9 6.8 16.4 6.5h1c.7-3.4 1.4-8.8 1.8-12.4"/>
    <path fill="#0b1520" d="m424.6 288-1.5 5c0-2.2 0-2.9.5-5z"/>
    <path fill="#010203" d="M407.6 288.4a102 102 0 0 1 16.4 5.5l.3 1H423a47 47 0 0 1-15.5-6.5"/>
    <path fill="url(#v)" d="M321.7 177.4c1.2 1.4 1.2 1.4 1 3.4a10 10 0 0 1 3 4.5 98 98 0 0 0 11.3 21.2 211 211 0 0 1-13.2-2.1 11 11 0 0 1-4.2-2.4 4 4 0 0 1-1.7-1.9c-.8-.2-1-.5-1.8-1h-.3c-.9-.5-3.5-3-4.4-3.8l.6-1 1.5.2.5-.9c.7.4 1 1 2.1 1.5.3-1 .2-.8 0-2 1.3-1.8-.4-5.3-1.4-7 1.3-.7 1.7-.1 2.9.7l.7-.4c.8-1.7.7-2.6.7-4.6l.5 1.6h.4l.2 1.2c.5-2.4.3-4.9 1.6-7.2"/>
    <path fill="#a8e3e7" d="M321.7 177.4c1.2 1.4 1.2 1.4 1 3.4l-1.7 8.3-.6 2.4-1.6 5.9-.8 2.7c-1-.2-1.1-.5-1.9-1h-.3c-.8-.5-3.5-3-4.4-3.8l.6-1 1.5.2.5-.9c.7.4 1 1 2.1 1.5.4-1 .2-.8 0-2 1.3-1.8-.4-5.3-1.4-7 1.3-.7 1.7 0 2.9.7l.7-.3c.8-1.8.7-2.7.7-4.6l.5 1.5h.5v1.2c.6-2.4.5-4.9 1.7-7.2"/>
    <path fill="#184049" d="m319 181.9.5 1.5h.4l.2 1.2q-2.2 7.2-4 14.4l-.3.1c-.9-.5-3.5-3-4.4-3.8l.6-1 1.5.2.5-.9c.7.4 1 1 2.1 1.5.4-1 .2-.8 0-2 1.3-1.8-.4-5.3-1.4-7 1.3-.7 1.7-.1 2.9.7l.7-.3c.8-1.8.7-2.7.7-4.6"/>
    <path fill="#5a6c73" d="M321 189.1c1 .6 3.9 9.4 5.4 11l2.6 4.4-.2.4-.8.3-4.2-.8a11 11 0 0 1-4.2-2.4c-1-.7-1.2-.8-1.7-1.9l.9-2.7 1.6-5.9z"/>
    <path fill="#010203" d="M321 189.1c1 .6 3.9 9.4 5.4 11l2.6 4.4-.2.4-.8.3-4.2-.8a11 11 0 0 1-4.2-2.4c2.6-.5 2.2 1.6 4.9 0l1 .8.7-.7c-2.7-3.3-4-9-5.8-10.6z"/>
    <path fill="#323a3d" d="m326.2 202.1.9.9v.4c-1 0-.6.1-1.5-.6z"/>
    <path fill="#0b1520" d="M318.8 197.4c.5.1 4.8 3.9 5.7 4.6-2.6 1.6-2.3-.5-4.9 0-1-.7-1.2-.8-1.7-1.9z"/>
    <path fill="#323a3d" d="m209.8 122.6.3.3c1 1.2 2.3 3.2 3.5 4.2q2.6 2.3 5.3 4.4l10.3 8.6c5 4.3 10.1 9.2 15.1 13.2-1.3 1.2-2.4 1.7-3.6 2.8l-18.5-15.2c-4.4-3.6-9.7-8.4-14.6-11.2-1.7-1-4.2-1-6.3-1.1 2.5-3.6 4.2-5.2 8.5-6m82.8 27.6c1.5-1 1.8-1.4 3-2.8 4 8 15.2 25.7 21.7 32 .5.7 1.4 1.8 1.7 2.5 0 1.9.1 2.8-.7 4.6l-.7.3c-1.2-.8-1.6-1.4-3-.7-1.8-3.5-5.3-8-7.7-11.3a126 126 0 0 1-14.3-24.6"/>
    <path fill="#494f60" d="m317.3 179.5 1.7 2.4c0 1.9.1 2.8-.7 4.6-1.6-2.4-2.3-4.3-1-7"/>
    <path fill="#eacd58" d="m425.7 247.7.4.3c1.8 1.1 5.3 2.4 7.4 3.2.1 5.8 1.4 12 1.5 17.7 0 .5-1.9 2.7-2.4 3.2-1.5-1.2-2.2-1.2-3.6-2.8-3.5-3.8-1.7-9.2-5-13.2-.9-1.2-2.9-2.3-4-3.1l-.3-.3c1.2-1.4 4.4-3.8 6-5"/>
    <path fill="#323a3d" d="M428.3 241.3c.4-1.2.5-2 1.4-3 3.8-1.9 14.6 3.5 16.8 6.7 0 2.4 0 4.1.3 6.6l-4.7 1c.3-1.6 1.1-5 0-6.3a28 28 0 0 0-11.4-6.2l-.4.3c.8 2 7.8 3.2 9.6 5.9 1.8 2.5 1.3 3.4 1 6.6a9 9 0 0 0-5.3 1.5l.2-1.4c.1-1.3.2-2-.6-3-4.2-1.6-3-2.2-4.2-5.7-.2-.6-2-2.4-2.7-3"/>
    <path fill="#d1a23f" d="M431.5 276.6c4.7-4 4.7-3.7 6-9.4l.7-.2q1.6.7 3.2 1c-1.6 2.4-3 9 .1 10.6 3.4 1.6 9.9-1.2 13.7-1l-2.2 4.1-.8-.3c-3.9 1.4-5.3 2.6-9.5 2.2 2-.9 3-1.3 4.9-2.5l-7.5.7a25 25 0 0 1-8.6-5.3"/>
    <path fill="url(#w)" d="M395.4 215c1.4 0 6.3 0 7.7.2l3 4.4c.5 1.3.7 1.2.5 2.4-1.6 1.6-6.5 1.5-8.7 1.4-2.6-.3-7.9.5-9.5-.4 3.3-1.5 5.2-2.3 8-4.5-1.6-.8-2 .8-3.8.5l-.5-1 3.8-2.6z"/>
    <path fill="#0c1c1b" d="M395.9 215.4h5.1c-.9.6-3.7 2.8-4.5 3.1-1.8-.8-2.2.8-4 .5l-.4-1z"/>
    <path fill="#eacd58" d="M442.6 283.6c4.3.4 5.7-.9 9.6-2.2l.8.3c-.6 2.3-1.3 5.7-2 7.8l-2.6 1.2c-2.7.6-5.6.7-7.9 1.3-.8-.2-1.2 0-1.7-.7-2.2-3.2.6-5.7 3-7.4z"/>
    <path fill="#5a6c73" d="m304.8 151.8 4-1a66 66 0 0 0 12.3 19l1.8 2.1c-.7 1.9-.5 1.6-1.9 2.9-.6-.5-2.8-3.5-3.4-4.3-5.2-6.2-8.7-11.7-12.8-18.7"/>
    <path fill="#d1a23f" d="M429 284.9c.5-1.5.9-3.3 2-4.4 2.1-.8 5.4 3.3 10.7 3.4-2.3 1.7-5 4.2-2.8 7.4.4.7.8.5 1.6.7l-3.2.3c-3.2-2-5.6-4.7-8.2-7.4m7-28.6 6.7-2c1 3.8.4 8 2 11.7h-.6c-8.3.3-7.4-2.9-8.2-9.7"/>
    <path fill="#6c9b90" d="M209 117c0 2.2 0 3.5.8 5.6-4.3.8-6 2.4-8.5 6l-1.9 1.5-2 1.2-.8-.6c1.6-7 6.8-10.2 12.4-13.8"/>
    <path fill="#182b33" d="m244.3 153.3 9 7.2c-1 1.6-1.6 2.6-2.3 4.3q-4.8-4.8-10.3-8.7c1.3-1 2.3-1.6 3.6-2.8"/>
    <path fill="#0c1c1b" d="M333.3 208.5c.6.2 2.6.5 3.1.8 2.1 0 3.2.1 5.2.6q1.5 0 2.8.3c.1 1.1 1.7 2.5 2.6 3.4l2 2-.1.4a32 32 0 0 1-5.9-3.4l-.3-.2-.2-.2-1.1.7-.3-.1c-.9-.4-1-.5-2-.6l-.3.2c1.2 1.4 3.7 1.3 4.2 2.2l-3.2.2c-1.2-.1-6-3-7.4-3.8l.7-.6q-.1-.9.1-1.9"/>
    <path fill="#184049" d="M333.3 208.5c.6.2 2.6.5 3.1.8 1 1 1.2 1 1.3 2-1.3.6-2.7-.2-4-.7l-.5-.2z"/>
    <path fill="#4b8183" d="M341.6 209.9q1.5 0 2.8.3c.1 1.1 1.7 2.5 2.6 3.4-1.9 0-4.8-1.8-5.4-3.7"/>
    <path fill="#bd7a44" d="m371.4 345.5 3-3.2q1.3-1.1 2.8-.9l.2.5q-5.5 4.8-8.2 11.7c-.5 1.2-.7 4.7-2.1 4.6-1-1.1-1-2.2-1-3.7q.3-2.7 1.1-5.2l1.3.2c1.5-1 2.1-2.4 2.9-4"/>
    <path fill="#b17650" d="M340.8 297c3.7.5 21.3 2.4 23.2 4.4v.2-.2l-.4.5c-3.7 0-9.8-1.3-13.7-1.7-7-.9-13-1-20.1-1 5.2-1 14.2-.2 19.6.2.7 0 .4.2 1.3 0h.2c-3.7-1.8-8-.5-10.1-2.3m-58.7 6.4a80 80 0 0 1 22.8-1.4c-5.2 1.1-21.5 4.8-25.2 8.4-.1.5-.2.3 0 .7-1 .5-.7.5-1.6.3l-.1.1.7-.8c2.1-3.7 11.8-5.5 15.7-7 .6-.2.4 0 1.2-.5l-.2-.5c-1.5-.8-10 1.1-13.3.7"/>
    <path fill="#332a22" d="M271 100c.5 3.8-.6 4.8-1.8 8.5-2.6-2.5-5.1-4.2-7.7-6.9 4.6 1.7 6.9 3.5 9.5-1.7"/>
    <path fill="#b17650" d="M400.4 240c1.5 1 2 1.4 3.7 2.1-.4 1-.4 1.6-1.3 2.2-1 .3-1 .2-2-.2l-2.6-1.1c.8-1.3 1.1-2 2.2-3"/>
    <path fill="#cf8b53" d="M369.3 342.7v.3a9 9 0 0 1 0 3.4l.2.5q1.2-.3 2-1.4c-.9 1.6-1.5 3-3 4q-.7 0-1.2-.2z"/>
    <path fill="#e2b977" d="m270.1 135 2.6 5-2.6.7z"/>
    <path fill="#58544c" d="M397.9 223.4a49 49 0 0 1-10.2 0v-.3h.4l.3-.1c1.6.9 7 .1 9.5.4"/>
    <path fill="#a69c84" d="M425.7 247.7c1.4-1.2 1.9-1.4 3.7-1v.3c-2 1.3-1.3-.3-3.3 1z"/>
    <path fill="#79904c" d="m57.2 239 2.7 1c3.4 1.6 4.8 2.5 7.6 5 1 .8 3.3 3 4.2 3.4.8-.5.8-.7 1.5-.5 2.4.6 6.2 1.4 8 3 1.3-2.6 1-4.7.8-7.6l.5-.4c1.5.2 6.8 5 7.8 6.6.8 1.2 4.3 5.4 5.5 6 4 1.9 8.6 2.7 11.6 6.6 1-1.2 1.5-4.6 1.8-6.1l.5-.3a35 35 0 0 1 15.2 17.5c.6-.2.6-.3 1-.8 1.5.3 4.6 3.4 5 5q.3 1.6 2 2.2c2 3.6 12.8 13 16.7 11.5.2-.8 0-1.1-.3-1.9 1-.1 6.9 2.8 8.2 3.5l.4 1.4.4.3c3.1-2 3.3-4.5 3.5-8 .4-1.3.1-1.3 1-2q1.5 1 2.5 2.2c6.5 6.8 15.7 19 26.7 14.5 1.9 1.8 4 3.3 6.7 3.2a54 54 0 0 0 13.8-3 17 17 0 0 0 7.8-7.4q-.5 6 0 12.1a75 75 0 0 0 9.6 36 124 124 0 0 1-119-33.5c-13.6-13.8-22.8-27.9-40.2-37-22-11.8-43.7-12-67.2-5.5H2.2l-.2-.5c.6-1.2.8-1.3 1.8-2.2 10.5-10.5 35.7-17 50.4-17.1 4.6-.3 3.3-3.5 3-7.2"/>
    <path fill="#5a6940" d="M6.6 263.3a95 95 0 0 1 43.7-4.7 96 96 0 0 1 38.4 22.2c12.9 12.2 25.2 25.2 40.2 35a96 96 0 0 0 69.7 15.9c5-1 10.4-1.5 15.4-2.9-2-6.9-2-14-1.7-21 0-1.3.6-5.8.2-6.5a17 17 0 0 0 7.8-7.4c-.5 4-.2 8 0 12.1a75 75 0 0 0 9.6 36 124 124 0 0 1-119-33.5c-13.6-13.7-22.8-27.9-40.2-37-22-11.7-43.7-12-67.2-5.5H2.2l-.2-.5c.6-1.2.8-1.3 1.8-2.2 1 .5 1.4.2 2.6 0z"/>
    <path fill="#5b754d" d="M3.8 263.3c1 .5 1.4.2 2.6 0h.2q-1.7 1.2-3 2.7H2l-.1-.5c.5-1.2.8-1.3 1.8-2.2"/>
    <path fill="#5a6940" d="M107.4 262c1-1 1.5-4.5 1.8-6l.5-.3a35 35 0 0 1 15.2 17.5l-.5.8h-.7l-1.6-1.3c-9.6-1.5-13-8.9-15.3-9.5v-.2z"/>
    <path fill="#79904c" d="M109.7 255.7a35 35 0 0 1 15.2 17.5l-.5.8h-.7l-1.6-1.3a50 50 0 0 0-12.6-15.1c-.2-1-.2-1 .2-1.9"/>
    <path fill="#5a6940" d="M158.3 294.4c3.1-2 3.3-4.5 3.5-8 .9 1.5 2.5 2.4 3.8 3.8 3.6 4 6.5 7.3 10.4 11a31 31 0 0 1-12.7-4c-1-.5-1.5-.8-2.3-.6-.7-.4-2-1.6-2.6-2.2m-76.3-51c.8 1.3 2.4 2.5 3.6 3.6 2.3 2 5.5 7 6.5 9.9-3.9-1.3-7.5-4.8-10.5-5.6l-.4-.5c1.4-2.5 1-4.6.9-7.5M57.3 239l2.7 1-.7 1c3 2.2 7 3.6 9 7.7-2.5-.5-7.5-1.9-10.3-2.2l-.8.5-.1-.3q-1.2-.7-2.8-.5c4.6-.3 3.3-3.5 3-7.2"/>
    <path fill="#010203" d="M106.7 263.2c2.4.6 5.7 8 15.4 9.5l1.6 1.3c-8.3-.7-13.5-3.3-17-10.8m54.3 33.4c.8-.2 1.3.1 2.3.6 3.4 1.7 8.9 4.1 12.7 4l4.3 1.5c-8.6.7-12.7-1-19.3-6m-79.4-45.3c3 .8 6.6 4.3 10.5 5.6l2.9 1.8c-5.7-.8-10.3-2.2-13.4-7.4M57.2 247l.7-.5c2.8.4 7.8 1.7 10.4 2.3.3.6.2.3.1 1-2.1.8-9.3-1.6-11.3-2.8"/>
    <path fill="#f2a231" d="M267.1 138.3c1.4 13.4 10.9 31.2 18.9 42l-.7.6c-2.3-2.2-5-3.6-7.5-5.4-7.3-3.1-16.5-3.1-21.8 3.7l.6.5c7.4-8.4 19.2-3.7 26.1 2.7 10.1 9.3 15.3 21 21.3 33 2.8 5.3 7 11.3 9.3 17a30 30 0 0 0-15 6.4c4.7-1.6 16-6.5 19.8-2.4l-.2.3c-2.8.1-6.6 2.2-8.8 3.8-4 3-4.7 4.6-7.5 8.7l-2 4c5.3-5.6 9.6-11.9 17.7-14 7-1.7 13.8 3.3 19.5 6.9.2.1 1.5 1 1.4 1.2-2 2.7-4.2 5.5-5.5 8.5a48 48 0 0 0-4 25.1c-9.4.3-32.9-6.3-40-12.5-13.4-11.5-34.6-40.8-37-58.2-1.8-6.5-1.4-8-2.2-14.2-1.9 10.2.4 14 1.7 22.6 1.2 3.6 2 6 3.8 9.5-2-1.7-4.1-4-5.5-6.2-1.6-1.7-3.7-7-5-7.4-1.2 3 4.9 11.6 7 13.7 4.3 3 6.3 5 8.9 9.6 5.2 9.3 11.4 17 18.9 24.6-3.2-1.2-13.8-4.5-15.9-6-12.5-5-23-13.2-32.6-22.6 4.3-16 10-34.8 15.8-50.2q5.3-13.4 11.6-26.3c1.3-2.7 3.9-5.5 4.8-8.2.3-1 .2-4.6.4-6.3v-.4c.8-1.7 2.3-2.9 3.7-4.1"/>
    <path fill="#cf7632" d="M251.7 210.2c2.2 2.3 3.5 6.2 5.1 9a272 272 0 0 0 18 26.5c1.6 2.1 4.1 4.1 5.8 6.2 2.3 2.7 3.2 6.1 5.8 8.7 8.5 8.8 25.3 11.7 36.9 13.4.8-7.3 3.8-16.2 8.1-22.3 1.3-1.8 4.5-4.4 5.4-5.6.2 0 1.5 1 1.3 1.2-1.9 2.7-4 5.5-5.5 8.5a48 48 0 0 0-3.8 25.1c-9.5.3-33-6.3-40.2-12.5-13.3-11.5-34.5-40.8-36.9-58.2m-.2 18c4.3 3 6.3 5 8.8 9.5a117 117 0 0 0 19 24.7c-3.2-1.2-13.8-4.6-15.9-6l.5-.3c0 .9-12.4-23.4-12.4-28m15.6-90c1.4 13.5 10.9 31.3 18.9 42l-.7.7c-2.3-2.2-5-3.6-7.5-5.4.3-.6.2-.4.2-1a115 115 0 0 1-11.4-22.7c-1-3-1.6-5.5-2.3-8.5l-1-1q1.5-2.3 3.8-4"/>
    <path fill="#bd7a44" d="M301.6 249.2c-1.5-4 3.6-8.5 7.5-8.7-4 3-4.7 4.6-7.5 8.7"/>
    <path fill="#b3916e" d="M251.2 218.6c1.1 3.6 2 6 3.7 9.5q-3.1-2.8-5.5-6.2h.6c.5.6.5.5 1.2.7.2-1-.2-2.5 0-4"/>
    <path fill="#613420" d="m256 179.2.6.4c-.5.7-.4.7-1 1.1l-.2-.4z"/>
    <path fill="#eacd58" d="M346 245c6.6 3.7 14 7 20.7 10.3 2.8 1.4 6.5-1.4 8.9-2.9q3.8-2.4 7.8-4.3c2 .8 5.6 1 6.2 2.9-.3 1.2-1 1.8-2 2.8a42 42 0 0 0 18.8 9.1l2 3.7c3 5.6 1.4 8.4-4 11.4q-1.6.6-2.8 1.3l2.7.5c1 1.3-.3 6.8-.8 8.5-5 3.3-5.6 2-8.9 8-9.2 4.2-21.6-1.7-29.4-6.8-.8-.4-5.6-4-6.2-4-9 1.3-17.4 1.7-26.4 1.8a33 33 0 0 1-1.6-13.5c-.2-10.8 5-23.6 15-28.8"/>
    <path fill="#d1a23f" d="M408.4 266.6c3 5.6 1.4 8.4-4 11.3l-2.8 1.4 2.7.5c1 1.3-.3 6.8-.8 8.4-5 3.4-5.6 2.2-8.9 8.1-9.2 4.2-21.6-1.7-29.4-6.8-.8-.4-5.6-4-6.2-4a180 180 0 0 1-26.4 1.7 33 33 0 0 1-1.6-13.4c1 6.4 6.8 5.5 11.8 5.6 4 0 8.6 0 12.7-.6 6.8-.9 6.8-2 12.3 2.9 7 6.2 13.2 7.8 22.2 8.9 4.6-2.3 7.1-3.8 9.2-8.5.4-.9 1.2-2.6 1.8-3.3 3.6-4.9 4.6-6.7 7.4-12.2"/>
    <path fill="#323a3d" d="M253.6 101.9c3.5.4 11 6.8 14.3 9.3a41 41 0 0 0 .9 21.2c-1.5 3-2 3.3-5 5.1-3.2 4.4-3.1 5.8-3.4 11.2-3.2 4.1-3.7 5.7-6.2 10l-9-8c-5.2-4.6-9.7-9.3-15.2-13.8-1.9-1.5-9.3-7.3-10.2-8.3-2-1.5-4.3-3-6.1-4.8-1.4-1.4-2.5-3.2-2.4-5.2q.2-2 1.7-3.1c4.1-3.7 29.2-12.2 36-13.4q2.2-.4 4.6-.2"/>
    <path fill="#182b33" d="M245.3 150.7c4.8-3.4 11.2-12.4 18.6-13.2-3.3 4.4-3.2 5.8-3.5 11.2-3.1 4.1-3.6 5.7-6.2 10z"/>
    <path fill="url(#x)" d="M219.9 128.6q-3.4-2.2-6.2-4.8c-1.4-1.4-2.5-3.2-2.4-5.2q.2-2 1.7-3.1c4.1-3.7 29.2-12.2 36-13.4q2.2-.4 4.6-.2l-.2.4h-.4c-5 1.3-33.2 11.7-35.4 15.8-.7 1.5-.9 3.5-.3 5s2.6 4 2.6 5.5"/>
    <path fill="#323a3d" d="M220.6 223.4c2.4 1.6 5.3 8.6 7.3 11.4 9.3 13.2 37.7 26.9 53.6 29.6 2.3 3 5 6.3 8.5 8.5 9.2 5.7 21.8 9 32.4 10.8.9.1 5.4-.8 6.4-1 .9.7 1.4 6.2 3.1 6.3 7 .8 19.9 1.3 26.4-1.4 4.5 4.4 15 9.8 21.2 11 2 .4 6.9 1.1 8.3 1.8v.6l-.8.7-2.2 1c-3 .8-17.9-3.4-22-4.4-10.1-2.3-20.3-3.8-30.5-5.5l-19.1-3.7c-6.7-1.3-13.4-2.2-20-4.1a227 227 0 0 1-45.7-18.1c-9.7-5.4-26.7-15.6-29.9-27-1-3.7-1-12.1 1.2-15.5.5-.8 1-.8 1.8-1m-61.7 17.1c0-.7 0-.5.3-1.1 2.6-2 10.6-6.3 13.6-7.5 1 .2.8.3 1.7 1.2 1.2.7 9.2 7.5 10.8 9q10 8.2 20.3 16l-.1.5c-1.6 5.8-.4 14.5-5.8 17.7-12.5 7.4-33-6.5-39.5-17 .4-1.3-1.4-5.8-1.6-8.4a16 16 0 0 1-.5-8.6l.2-.9z"/>
    <path fill="#010203" d="M158.1 242.3c.7 1 .7 1.2 1 2.4.8 7 8 15.7 13.5 19.8 8 6 14 7.9 23.5 9.3l-.2.5c-2.1.4-3.5 0-5.5.1a45 45 0 0 1-26.8-16.7c-1.7-2.1-2.9-5.4-5-6.8a16 16 0 0 1-.5-8.6"/>
    <path fill="#6c9b90" d="M159 240.5c0-.7 0-.5.2-1.1 2.6-2 10.6-6.3 13.6-7.5 1 .2.8.3 1.7 1.2a98 98 0 0 1-15.4 11.6c-.3-1.2-.3-1.4-1-2.4l.2-1z"/>
    <path fill="#0c0d10" d="m158.3 241.4.6-.9c.2 1.7.2 2.6.2 4.2-.3-1.2-.3-1.3-1-2.4z"/>
    <path fill="#010203" d="m196.1 273.8 1.5.2.1.4c-1.6.3-5.7.5-7.3 0 2-.1 3.4.3 5.5-.2z"/>
    <path fill="#f2a231" d="m292.9 188.2 5.4 5.8a143 143 0 0 0 72.8 42.2c-.3 1.2-1 3.4-1.6 4.3l-4.9 11.8c-4.5-3-11-6.5-16-8.6-3-1.2-5.9.5-8.6 1.9a36 36 0 0 0-12.6-7.2c-2.2-.7-4.8-1.2-6.8-2.4-2-3-1.6-2.2-4.7-3.4-.1 0-3-7-3.7-8q-6.7-11.2-12.1-22.8l-1.6-3.2a36 36 0 0 0-5.3-8.6z"/>
    <path fill="url(#y)" d="m292.9 188.2 5.4 5.8a143 143 0 0 0 72.8 42.2c-.3 1.2-1 3.4-1.6 4.3-.7-.8-12.4-3-15-4a141 141 0 0 1-41.8-24c-4-3.2-7.9-8.1-11.8-11l-.8.3-1.6-3.2a36 36 0 0 0-5.3-8.6z"/>
    <path fill="url(#z)" d="M280.2 99.3c2.5.1 5 1.6 6.7 3.4a45 45 0 0 1 11.2 28.6c.1 8-1.7 11.5-7 17.2l-4-.2-.5-.2a26 26 0 0 1-14-13.8 34 34 0 0 1-.9-26.2c.3-.7 1.6-4 2.2-4 .4 0 .9.5 1.4.2 1.4-1 .2-3 4.9-5"/>
    <path fill="#010203" d="M277.7 107.2h2.7c3.3.7 6 3.8 7.7 6.5 3.2 5.4 5 13.9 3.5 20q-1 4.8-5.1 7-1 .2-2 .1c-3.1-.2-6-2-8-4.3-4.2-4.8-4.7-12.1-4.2-18.2.4-4.3 2-8.3 5.4-11.2"/>
    <path fill="#323a3d" d="M282.1 111q.5 0 .8.3c4 2.6 6 10.4 6.6 14.7.6 4 .2 8.2-2.3 11.5l-.5-.2a15 15 0 0 1-6.8-10.1c-1.2-5.8-1-11.2 2.3-16.2"/>
    <path fill="#323a3d" d="M279 109q1.5.1 2.5 1.1c-1 1.4-2.7 3.3-3 5l-.4 2.5c-1.1 8.8.8 13.6 6 20.3l-.5.3a13 13 0 0 1-6.5-5.2c-3-4.7-3.7-12-2.5-17.3q.8-4.3 4.4-6.7m-62 135.5c-8.1-2-9.4-3.2-9.6-11.8 0-9 .7-15.5 4.5-24.3a64 64 0 0 1 12.8-19.1c1.2-.9 5.3 2 6.7 3 2.2 1.6 4.5 3.3 7 4.3-3.6 11.5-6.6 23.3-10.2 34.6l-2.3-4.4c-1-1.9-1.6-6.2-2.9-7.5-2.3 2.3-.3 3-1.3 4.3l-1-.2c-.9-1-1.4-1.2-2.7-.9-2.6 2-3.1 7.8-3.5 10.9-.6 4.3.6 7.3 2.5 11"/>
    <path fill="#182b33" d="M231.4 192.3q3.3 2.6 7 4.3c-3.6 11.5-6.6 23.3-10.2 34.6l-2.3-4.4c-1-1.9-1.7-6.2-2.9-7.5.6.2.3.2 1-.1v-.8c-1.2-1.1-.7-.8-2.5-1l-1.5-.4q-.8-.2-1-.7c0-.3.9-.5 1.3-.5h1.3l1.1.3c.5-5.9 3.8-20.5 8.7-23.8"/>
    <path fill="#323a3d" d="M287.3 57c.6 1.4-.8 9.8-1 11.7a149 149 0 0 0 1.3 31.2 12 12 0 0 0-9.8-2.5l-2.5 1.4q-.8-3.7-.6-7.4A81 81 0 0 1 287.3 57"/>
    <path fill="#f2a231" d="m397.9 234.8 1.2-.3.3.3c-.2 2-2.5 5-3.4 7.2-1.8-.6-2.6-.8-4.4-1.1-2.1 1-3.4 1.6-5.3 3.1q.8 1.5.7 2.8-1.5 0-3-.7c-8.4 2-9.3 5-15.7 7.8l-3-1.1c2.5-4 5-8.1 6.2-12.6q.7-1.9 1-3.8c9.6 1.2 16.2 0 25.4-1.6"/>
    <path fill="#cf7632" d="M372.5 236.3c9.6 1.3 16.2 0 25.4-1.5-5 5-13.5 5.5-20.2 5.5h-6.2q.7-2 1-4"/>
    <path fill="#5a6940" d="M195.8 289.1c4.2-.4 8.3-.5 12.4.6s6.7 2.6 11 2.8c-5.1 6-7.2 7.2-15 9.4-1.4.4-4.4 1.6-5.5 2.4-2.8.2-4.8-1.4-6.7-3.2 4-4.2 2.7-7 3.7-12"/>
    <path fill="#5a6c73" d="M295.5 93.6c1.5-.7 2.6-1.8 4-1.7a44 44 0 0 1 13 35.9c-.5 3.8-1.7 17.9-4.1 21.4-.4.6-2.8 1.3-3.6 1.5 6.7-18.7 6-42.6-9.3-57.1"/>
    <path fill="#323a3d" d="m304 35.2 3.9-1.6c-6 15-8 33.7-8 49.9 0 2 .8 7-.3 8.4-1.5-.1-2.6 1-4 1.7l-.6-.9c-.5-2.5 0-7.4.2-9.9.8-11.2 3.7-37.8 8.9-47.6m86.6 208.6h1.3c5.6-.3 12.8 4.4 16.8 8-.7 3.2-2.1 6.1-2.7 9.3q-1.9-.7-3.9-1c.8-2.3 2.1-5.3 1.3-7.6-.9-2.6-4.5-3.8-6.8-5q-3-1.8-6.6-2.6c3.3 2.3 7.7 3.8 10.7 6.6.8.7.8 2 .9 3 0 1.1 0 4-.7 4.8-3.4-1.2-7-3.7-10-5.6l.5-5.4-1.3-1.2q-1-.7-1.3-2c.5-.8 1-.9 1.8-1.3"/>
    <path fill="#5a6940" d="M131.3 271c3.3 3 5.3 5.8 8.2 8.8 3.6 3.9 6.3 6 9.4 10.5-5.4-3-10.3-6.2-15-10.5l-1-.2q-1.7-.6-2-2.3c.6-1.4.4-4.5.4-6.2"/>
    <path fill="#7e958d" d="M160.2 259.3a26 26 0 0 1-5.6-13.4c-.1-2 1-8.2 3.7-4.5l-.2 1a16 16 0 0 0 .5 8.5c.2 2.6 2 7 1.5 8.4"/>
    <path fill="#6b5f50" d="M286 180.2c1.6 2.1 5.8 6.3 6.9 8l.3 1.8c-2.7-3.3-4.9-6.1-8-9.1z"/>
    <path fill="#8d7d6b" d="M499.7 347.2c3.8-1 6.3-.9 10 0v.5l.9 1c-2.8 1.2-7.6 2.9-8.9 5.8-1 2.4-1.6 4.8-3.2 7-2.8 3.8-4.5 2.9-7.2 8.6q-1.1 2-1.3 4.1c.4.5.3.6 1 .6a3 3 0 0 0 2.3-.7q2.2-2 3.7-4.3c5.3-7 8-9.7 17.3-9.1 3.2.2 7.2.8 9.9 2.6l.3.6c-1.4 2.1-8.2 2.6-10.7 4-1.6.8-2.3 2.9-3.6 3.6l-1.6 2.6q-3 1.1-5.7 2.7a48 48 0 0 0-12 10.6c-2.7 6-15.7 16-21.4 19.7l-9.5 5.7-5.3 4.2-11.9 9c-6.6.5-9.1 4.1-16.9 2.2l-.2.6c-3.7 1.5-8.7-.9-12.2.7l-1.9 1c-2 .8-3.3 2.5-5.6 3.2-4.1 1-8.6.2-12.8 1.8l-7 .6c-7.4 2.9-33.8 2.5-42.6 1.8-1.7 0-3.8 0-5.4.4-4.7 2.1-10.8.7-15.8.6-3.2.1-6.4.9-9.6 1l-8.2.1-8.3 1h-8.2c-5.8.5-11.4 1.5-17.2 2h-8.4l-28.4 2c-8.3.6-20.4 2.3-28.3-.1-5.7.1-17.4-2-23.2-3.2-4.3-1.5-9 0-13.3-.8-6.2-1-12.2-4.8-18.2-6.7-3.4-1.1-8.5-1.4-11.5-3.2q1.9-1.3 3.6-2.8l2-2.2c1.4-1.7 3.2-2.5 5.1-3.5l3.6 2.7q1.4-1 2.5-2.1l-.6-.4v-1.1c2 .2 4.2 1.1 5.9 0q1-1.8 1-4l2.6-2.3 2.7-1c5.5-.8 10.5 2.6 14.6 5.8 3.3 2.6 6.1 5.6 9.3 8.3l.3.2c1.4 1 2.6 2.4 4 3.2 3.3 1.8 9.4.8 13 .2l7.2-1.2c2.8-.3 5.5-.2 8.2-1 7.5-.4 15.1-1.5 22.7-2.2 4.7-.4 9.4-.2 14-.8 3.6-.8 7.2-1 10.8-1.5 6.6-.7 13-1.4 19.5-3-.7-2-3.3-4-3.3-6 1.6-1.2 3-1.3 4.9-1.4 1.5.4 3.2-.1 4.7.5q.9.4 1 1.2c.4 1.4-.4 3-1 4.2l10.3-.9c1.7-2.7 3-5.3 5.1-7.7 3-3.3 6.3-5 10.8-5.2a57 57 0 0 1 19.2-1.1l8 .4c2-.1 4.2-.4 6.2 0 .2 1 .4 1.3 1 2l.8.2c2 2.4 4 2.3 7 2.5h4.3q.2-1.9.2-3.9a9 9 0 0 0 2.2-4.5q1.6-.6 3.3-.5 2.1.7 4 2.2c1.5 2.2 3 4.7 5.2 6.4l2.5.4c1.8 1 3.9 2.4 6 2.8q4.1-.8 8.2-1.9l15.3-3.9-1.7-3q1.5-3.5 3.7-6.5c3.4-4.8 8.6-8.3 13.8-10.9q0 1.5.8 2.6-.4.6-.6 1.3l.1.4.7.1a42 42 0 0 0 13.4-10.3c11-7.3 8.5-19.5 14.5-29.3 1 2 1.8 3.6 3.3 5.1l1.3.3c2.3.4 4-.6 5.8-1.8-.2 5.3-4 9.7-3.9 15 .2 1.3 0 2.3.8 3.4l1.5.5q2.6-1.4 4.8-3.5 3-3.2 5.1-7c1.5-3.3 3-6.9 5-9.9a8 8 0 0 1 5.5-3.8l.6-.5c1.2-1.1 1.7-1.5 3.3-1.4 1.4-.3 3-1.2 4.4-1.7m-86 68.3.5-.6q-1-.4-2.2-.2l-.3.5q.9.4 2 .3"/>
    <path fill="#d1a23f" d="M499.7 347.2c3.8-1 6.3-.9 10 0v.5l.9 1c-2.8 1.2-7.6 2.9-8.9 5.8-1 2.4-1.6 4.8-3.2 7-2.8 3.8-4.5 2.9-7.2 8.6q-1.1 2-1.3 4.1c.4.5.3.6 1 .6a3 3 0 0 0 2.3-.7q2.2-2 3.7-4.3c5.3-7 8-9.7 17.3-9.1 3.2.2 7.2.8 9.9 2.6l.3.6c-1.4 2.1-8.2 2.6-10.7 4-1.6.8-2.3 2.9-3.6 3.6l-1.6 2.6q-3 1.1-5.7 2.7a48 48 0 0 0-12 10.6c-2.7 6-15.7 16-21.4 19.7l-9.5 5.7-5.3 4.2-11.9 9c-6.6.5-9.1 4.1-16.9 2.2q-2.9-.7-5-3 1.5-.2 3.1-.7v-.2q-.3-1.3-1.7-1.7l.2-.2-.5-2.7c2.8-1.4 12.5-3.3 16.4-4.5l-.6-.7q-3.4.6-6.8 1.5-.3-1-.3-1.9c.4-1.4 8.5-7.1 10-8.5a62 62 0 0 0 22.3-35.3c1-4.2 2.2-8.3 2.5-12.7l1.3.3c2.4.4 4-.6 5.8-1.8-.2 5.3-4 9.7-3.8 15q-.2 1.8.8 3.4l1.4.5q2.6-1.4 4.8-3.5 3-3.2 5.1-7c1.5-3.3 3-6.9 5-9.9a8 8 0 0 1 5.6-3.8l.5-.6c1.2-1 1.7-1.4 3.3-1.3 1.4-.3 3-1.2 4.4-1.7"/>
    <path fill="#010203" d="M499.7 347.2c3.8-1 6.3-.9 10 0v.5l.9 1c-2.8 1.2-7.6 2.9-8.9 5.8-1 2.4-1.6 4.8-3.2 7-2.8 3.8-4.5 2.9-7.2 8.6q-1.1 2-1.3 4.1c.4.5.3.6 1 .6a3 3 0 0 0 2.3-.7q2.2-2 3.7-4.3c5.3-7 8-9.7 17.3-9.1 3.2.2 7.2.8 9.9 2.6l.3.6c-1.4 2.1-8.2 2.6-10.7 4-1.6.8-2.3 2.9-3.6 3.6l-.2-.2c-1.8-1-2.7-1.6-4-3.2-4.4 3.1-15.8 12.7-20.4 12.6l-.2.6-1.2.2c1.5-6 4.6-13 9.3-17.3 2-1.7 4.6-3.3 5.7-5.7l-.2-.6c-.5-.5-4.5.5-7.2-2.5l-.2-.3q-.4-2-.2-4.3l.6-.6c1.2-1 1.7-1.4 3.3-1.3z"/>
    <path fill="#938050" d="M499.7 347.2c3.8-1 6.3-.9 10 0v.5q-2.6.8-4.7 2.2c-2.2 1.6-6.7 6.8-9.7 5.6q-1.3-.7-2-2 0-1.2.2-2.3c.2-1.1 1-1.6 1.7-2.3 1.5-.3 3.1-1.2 4.5-1.7"/>
    <path fill="#b2a478" d="M495.3 349c1.4-.4 3-1.3 4.4-1.8l.5.4c-.7 1.7-4.7 4.4-6 5.7l-.8.1.1-2.2q.5-1.4 1.7-2.3"/>
    <path fill="#eacd58" d="M506.6 362.3c-.6 2-1.2 3.7-.6 5.9-4.4 3-15.8 12.6-20.4 12.6 1-2.5 5-3 7-4.8 5-4.3 8.3-9.8 14-13.7"/>
    <path fill="#938050" d="M507.9 365.5q.1-1.6 1.2-2.8c2.2-2 6.7-1 9.3-.8q.2.6-.1 1-.9.8-2 .8h1.8l2 1q-3 .6-5.9 2l-3.6 2c-.8.2-1.1.1-1.8-.2q-.9-1.4-1-3"/>
    <path fill="#b2a478" d="M507.9 365.5q.1-1.6 1.2-2.8c2.2-2 6.7-1 9.3-.8q.2.6-.1 1-.9.8-2 .8c-2.8.5-5.6 1.5-8.4 1.8"/>
    <path fill="#938050" d="m518 363.8 2 1q-3 .6-5.7 1.9c.3-.8.2-1.4 1-2q1.4-.3 2.8-1"/>
    <path fill="#938050" d="M518.5 362q3 .8 6 2.2l-4.5.6-2-1h-1.6q1-.2 2-.8.2-.5 0-1"/>
    <path fill="#010203" d="M490.8 387.5c-2.6 6-15.6 15.9-21.3 19.6q-4.8 2.8-9.5 5.8l-5.3 4.2-12 8.9c-6.6.6-9 4.2-16.8 2.2a10 10 0 0 1-5-3q1.5-.2 3.1-.7 1.5.9 3.2 1.4c8.4 2 19.5-5 26.5-9.2q-.1-.6-.5-1.1c-1-.7-2.4-.3-3.5-.6q.5-.5 1.4-.5 6.4-2.2 12.5-5a98 98 0 0 0 27.2-22"/>
    <path fill="#938050" d="M451.1 414.5c2.1.5 4.9-.4 7-1q-2.1 1.9-4.4 3.3-.1-.7-.5-1.2c-1-.7-2.4-.2-3.6-.6q.7-.5 1.5-.5"/>
    <path fill="#eacd58" d="M491.4 350.8q-.1 2.3.2 4.4c-2.8 3.8-6.6 6.5-9.4 10.3q-2.4 4-5.4 7.6V372l-1-.5q3-3 5.1-7c1.5-3.2 3-6.8 5-9.8a8 8 0 0 1 5.5-3.9"/>
    <path fill="#eacd58" d="M471 375q2.6-1.4 4.8-3.5l1 .5v1c-1.3 1.5-4.9 6.1-6.7 6.4.2-1.4.2-3 .9-4.4m-48.5 47.5c4.7-.6 9.4-2.2 14.1-2.4-4 2-8.3 3-12.5 4.3-.5-1-.9-1.3-1.8-1.8z"/>
    <path fill="#010203" d="M468.7 371.2c.2 1.2 0 2.2.8 3.3l1.5.5c-.7 1.3-.7 3-.9 4.4q-.7 3.4-2.7 6.2c1.2-4.9 1-9.5 1.3-14.4"/>
    <path fill="#0c0d10" d="m484.2 381.5 1.2-.1q-.8 2.3-1.9 4.4.2-2.1.7-4.2"/>
    <path fill="#2c2408" d="m440.7 413.8-.4.8-2 .6-.5-.6z"/>
    <path fill="#735c17" d="m440.7 413.8 1.4-.1.1.2q-.8.5-2 .7z"/>
    <path fill="url(#A)" d="M462.2 352.6c1 1.9 1.7 3.5 3.3 5a70 70 0 0 1-2.6 12.7c-4 15.6-10 24.9-22.1 35.3-1.7 1.4-9.7 7.1-10.1 8.5q0 1 .3 1.9 3.3-1 6.8-1.4l.6.6c-4 1.3-13.6 3.2-16.4 4.5q.1 1.4.5 2.8l-.3.1c1 .5 1.4.7 1.8 1.8v.1q-1.5.5-3.2.7 2.1 2.3 5 3l-.2.6c-3.6 1.5-8.6-.8-12.1.7-1.7.1-3 1-4.7 1-5.1.3-10.3-.6-15.4 0-3.6.6-7.3 2.6-10.8 2.8-1.5-1.7-5.8-1.7-8-2.3-2-.5-9.4-2.6-10.5-3.8-.6-.8-1.1-2.9-1.7-3.9-2 .3-5.6.4-7.4 1.3-2.9.2-12.3 2.2-14.3 1.6v-.3c6.3-1.9 13.2-2 19.4-4.2 4.1-.7 10.3-1.3 14-3h1.5q.2-.6-.1-1.2 1.3-.1 2.6-.5c1.3-.3 2.4-.4 3.5-1.4l.4-.4c-.3-1-1.4-1.9-2.2-2.6h.3c2.6.4 5.1 1.7 7.8 2 1.8.1 3.4-.5 5.1-.4l1-.3 8.2-1.8 15.3-4-1.8-3q1.6-3.5 3.7-6.5c3.5-4.8 8.6-8.3 13.8-10.9q.1 1.5.9 2.6l-.7 1.3.2.4.6.2a45 45 0 0 0 13.5-10.3c11-7.4 8.5-19.6 14.5-29.4m-48.6 62.9.6-.6q-1-.4-2.2-.2l-.3.5q.8.4 2 .3"/>
    <path fill="#bfb096" d="M375.2 421.6q2.4.3 4.7-.3l4.8 2.6 1.1.3c.2.6.2.3.1.7q1-.2 2.1-.2.3.4.7.6l9-1.5 4-.7 8.5-1.3c2 0 3.5 0 5 1.4l.5.5 5.9-.8.6-.3c1 .5 1.4.7 1.8 1.8v.1q-1.5.5-3.2.7 2.1 2.3 5 3l-.2.6c-3.6 1.5-8.6-.8-12.1.7-1.7.1-3 1-4.7 1-5.1.3-10.3-.6-15.4 0-3.6.6-7.3 2.6-10.8 2.8-1.5-1.7-5.8-1.7-8-2.3-2-.5-9.4-2.6-10.5-3.8-.6-.8-1.1-2.9-1.7-3.9 4.3-.6 8.3-1.8 12.8-1.7"/>
    <path fill="#a69c84" d="m397.7 423.8 4-.7q.6 1.4 2 2c-.7.3-.8.4-1.5.1-1.8 0-4.8-.2-6.2 1.3l-.6.9q-.3.8-1 1.2-1 .6-2.1.4c-1.7-.5-2.8-2-3.6-3.5v-.2z"/>
    <path fill="#998c6d" d="m397.7 423.8 4-.7q.6 1.4 2 2c-.7.3-.8.4-1.5.1a10 10 0 0 1-4.5-1.4"/>
    <path fill="#b2a478" d="m403.7 425.2.5.5-.1.5a19 19 0 0 1-8.7 1.2l.6-1c1.4-1.4 4.4-1.1 6.2-1.2.7.3.8.2 1.4 0"/>
    <path fill="#f0c576" d="m421.6 422.9.7-.3c1 .5 1.3.7 1.8 1.8l-.1.1q-1.4.5-3.2.7l-4.2.7c1.2-.3 3.4-.8 4.2-1.9l-.3-.4c-2-.2-3.8 1-5.8 1l1-.9z"/>
    <path fill="#6b5f50" d="m386 424.9 2-.2.7.6v.2c-4.6.6-9.5 2.3-14.1 2 .7-.5 9.8-2.3 11.3-2.6"/>
    <path fill="#010203" d="M431 416q3.3-1 6.8-1.4l.6.6c-4 1.3-13.6 3.2-16.4 4.5q.1 1.4.5 2.8l-.2.1-.7.3-5.9.8-.4-.5c-1.6-1.5-3-1.4-5.1-1.4q-4.3.5-8.4 1.3l-4.1.7q-4.5.6-9 1.5l-.6-.6 9.5-2 21.1-4.3c4-.8 8.2-2 12.3-2.4"/>
    <path fill="#a69c84" d="M418.3 420.4c.5.9.8 1.8 1.8 2.3l1.5.2-5.9.8-.4-.5c-1.6-1.5-3-1.4-5.1-1.4q4-.9 8-1.4"/>
    <path fill="#998c6d" d="m385 419.1 7.8-1.5c1.5 1.4 3 4 4.8 5l-9.5 2q-1.2 0-2.2.3v-.7l-1.2-.3c.8-.6.7-1 .8-2 0-1 .2-2-.5-2.8"/>
    <path fill="#d1a23f" d="M415.8 405.1q1.5-3.5 3.7-6.5 1.4 3.7 3.2 7.1 3-.6 5.7-.8l.6.6c-3.9.4-7.6 2.2-11.5 2.6z"/>
    <path fill="#7c7161" d="M379.9 412.6h.3c2.6.5 5 1.7 7.7 2 1.8.2 3.5-.5 5.2-.4-3.6 1.2-9.3 3-13 3.2l-2-.4q2-.1 3.5-1.4l.4-.4c-.3-1-1.4-1.9-2.1-2.6"/>
    <path fill="#938050" d="M375.2 421.6c1.7-1.7 7.3-2 9.8-2.5.7.8.5 1.8.5 2.8s0 1.4-.8 2l-4.8-2.5q-2.4.5-4.7.2"/>
    <path fill="#6b5f50" d="m378.1 417 2 .4-4.5 1.3c.3-.5 0-.7 0-1.2q1.3-.1 2.5-.5"/>
    <path fill="#eacd58" d="M428.4 404.9q1.1-.3 2 0c-.5.5-.7.5-1.4.6z"/>
    <path fill="#010203" d="m418.9 411.9 1.5 3.1c-2.9 1-6 1.3-8.7 2.4-3.4 1.2-5 1-8.4-.3l-2.3-.7v-.4c1.6-.8 3.8-.9 5.5-1.2 3.7-1.4 8.4-2 12.4-3m-5.3 3.6.6-.6q-1-.4-2.2-.2l-.3.5q.9.4 2 .3"/>
    <path fill="#998c6d" d="m403.3 417.1-2.3-.7v-.4c1.6-.8 3.7-.9 5.5-1.2v.6c1.8.5 3.5 1.7 5.2 2-3.4 1.2-5 1-8.4-.3"/>
    <path fill="#938050" d="m403.3 417.1-2.3-.7v-.4c1.6-.8 3.7-.9 5.5-1.2v.6l-2.5.5-.2.4z"/>
    <path fill="#0c0d10" d="M412 414.7q1.2-.2 2.2.2l-.6.6q-1 0-2-.3z"/>
    <path fill="#d1a23f" d="m418.9 411.9 5.7-2 2 4.2q-3.2.4-6.3 1z"/>
    <path fill="#bfb096" d="M168 414.3c5.5-.7 10.5 2.6 14.6 5.8 3.3 2.6 6.1 5.7 9.3 8.3l3.3 4.4c6.6 2.3 13.5 3.1 20 5.3-5.7.5-16 2-21 1.5-.9 0-2.2-.2-2.9.3v.3a92 92 0 0 0 17 3.1l-.6.8.4.6-.3-.3.2.4-.4-.3c-.7.5-1 .4-1.8.4-5.7.2-17.5-1.9-23.3-3.1-4.2-1.5-9-.1-13.2-.8-6.2-1-12.2-4.8-18.2-6.8-3.4-1-8.6-1.3-11.5-3.1l3.5-2.8 2-2.2c1.5-1.7 3.3-2.5 5.2-3.5q1.9 1.1 3.5 2.7 1.5-1 2.6-2.2-.4 0-.7-.3l.2-1.2c1.8.3 4 1.2 5.7 0q1.2-1.7 1.1-3.9 1.2-1.3 2.5-2.3z"/>
    <path fill="#8d7d6b" d="m165.3 415.4 2.7-1.1v.3c.2 3.7 3.8 6.7 6.4 9 3.7 3.2 7.9 6 11.8 8.8 1.6 1.2 3.6 2.2 4.8 3.7v.4h-.4a6 6 0 0 0-2.7 0c-2.9-1.8-3.9-4-7.6-5.7-3.4-1.7-9.3-2-11.9-3.8l-.9-.7c-2.7-1.5-8-3.5-11.1-3.2q-.3 0-.6-.4v-1.1c2 .2 4.2 1.1 5.9 0q1-1.8 1-4z"/>
    <path fill="#010203" d="M162.8 417.7q1.1-1.3 2.4-2.3c-.8 1.3-1.5 2.6-1.2 4.3.5 2.4 3.3 4.4 3.5 6.6-2.7-1.5-8-3.5-11.1-3.2q-.3 0-.6-.4v-1c2 .1 4.2 1 5.9-.1q1-1.8 1-3.9"/>
    <path fill="#8d7d6b" d="m143.1 428.3 2-2.3c4.2 2 10.7 2.3 15.4 3.5 3.9 1 8.3 3.5 12.3 3.8l.6.2 1 .8c4-.3 10.1 2 14 3q-9.5.2-19 1.4c-3.8-2-7.3-4.3-11.5-5.8-4.8-1.7-10-2.6-14.8-4.6m45 11.3-3.5-.2h-.8v-.4q3.3-.4 6.6.2z"/>
    <path fill="#332a22" d="m190.4 439.2 3.8.4c-.9 0-2.2-.2-2.9.3v.3l-3.2-.6z"/>
    <path fill="#bfb096" d="M373 402.7c1.2-.5 2-.7 3.3-.5 1.4.6 2.8 1 3.9 2q2.2 3.8 5.3 6.5l2.5.4c1.8 1.1 3.9 2.4 6 2.8l-1 .3c-1.6 0-3.3.6-5 .4-2.8-.3-5.2-1.5-7.9-2h-.3c.8.8 1.9 1.6 2.2 2.7l-.4.3q-1.4 1.3-3.5 1.4-1.2.4-2.6.5.4.6.1 1.2h-1.5c-3.7 1.7-9.9 2.3-14 3l-2.5-1.4c-4.8-2.2-9-1.3-13.7.5a26 26 0 0 0-8.6-5.4c-9.3-3.4-14.5-.9-22.7 3l-.4-.5.4-1c2-5 6.8-7.9 11.5-9.8a57 57 0 0 1 19.1-1.1l8 .3c2 0 4.2-.3 6.2.1.2 1 .4 1.3 1 2l.8.2c2.1 2.3 4.1 2.3 7.2 2.5h4.2l.2-3.9a9 9 0 0 0 2.2-4.5"/>
    <path fill="#0c0d10" d="M373 402.7c1.2-.5 2-.7 3.3-.5 1.4.6 2.8 1 3.9 2q2.2 3.8 5.3 6.5l2.5.4c1.8 1.1 3.9 2.4 6 2.8l-1 .3c-1.6 0-3.3.6-5 .4-2.8-.3-5.2-1.5-7.9-2h-.2c.7.8 1.8 1.6 2.1 2.7l-.4.3q-1.5 1.3-3.5 1.4-1.2.4-2.6.5.4.6.1 1.2h-1.5c-4.2-7.6-11.6-3.5-14-4.5-1.3-.5-3.2-2.8-4.3-3.7q-1.6-1.2-3.6-2.2l.4-.2.1-.5q-.4-1-1.5-1.3c2.1 0 4.3-.3 6.3.1.2 1 .4 1.3 1 2l.7.2c2.1 2.3 4.2 2.3 7.2 2.5h4.2l.2-3.9a9 9 0 0 0 2.2-4.5"/>
    <path fill="#bfb096" d="M379.9 412.6c-2-.7-5.4-2-6.5-4l.4-.4c3.6-.5 8.2 1.5 11.7 2.5l2.5.4c1.8 1.1 3.9 2.4 6 2.8l-1 .3c-1.6 0-3.3.6-5 .4-2.7-.3-5.2-1.5-7.8-2z"/>
    <path fill="#a69c84" d="M376.3 402.2c1.4.6 2.8 1 3.9 2q-.7 1.3-2 1.8-1.3-.2-2.3-.7l-.3-1q-.1-1.2.7-2.1"/>
    <path fill="#8d7d6b" d="m375.5 417.5-.4-.8.5-.5c1.9-.8 4-.7 6-.6-1 1-2.1 1.2-3.5 1.4q-1.2.4-2.6.5"/>
    <path fill="#010203" d="m343.3 406 8 .3c.7.4 1 .5 1.4 1.3v.5l-.5.2a42 42 0 0 0-9-2.4"/>
    <path fill="#0c0d10" d="m192 428.4.2.2c1.3 1 2.5 2.4 4 3.2 3.3 1.8 9.4.8 13 .2q3.6-.7 7.2-1.1c2.7-.3 5.5-.3 8.1-1l-.3.5c1.8 1 22.8.3 25.8.2q12 0 24.2.6l27 .8c-3.1.4-6.8 1.2-10 1l-23.8 3.3q-5.2 1-10.6 1.7c-13 2.4-26.9-.6-39.6 3.7q4.6 1 9.4 1l.2.7c-2.5-.1-5.3.6-7.8.8-3.6.3-7-.3-10.6-.9a92 92 0 0 1-17.1-3.1v-.3c.6-.5 2-.3 2.9-.3 5 .4 15.3-1 21-1.4-6.5-2.2-13.4-3.1-20-5.4z"/>
    <path fill="#010203" d="m256.8 438-.7-.4q1.1-.6 2.6-1l7.6-.7c5.6-.8 20.3-3.8 25-3l-23.9 3.4q-5.2 1-10.6 1.7"/>
    <path fill="#0c0d10" d="M308.2 420c1.7-2.8 3-5.4 5.1-7.8 3-3.3 6.3-5 10.8-5.1-4.6 2-9.5 4.8-11.5 9.7l-.3 1q-.6 3-.1 6c-7.8.3-15.6.2-23.4.8l-19.2 1.7c-2.7.2-5.6.7-8.3.5q5.4-1 10.7-1.4c6.6-.8 13-1.5 19.6-3-.7-2-3.4-4.1-3.3-6 1.6-1.3 3-1.4 4.9-1.5 1.5.4 3.2 0 4.7.6q.9.3 1 1.2c.4 1.4-.4 3-1 4.1q5.1-.3 10.3-.9"/>
    <path fill="#010203" d="M343.6 438q10.2-.6 20.4-.8h9.7c4.2 0 8.3-1 12.6-1-7.5 2.8-33.9 2.4-42.7 1.7"/>
    <path fill="#b2a478" d="M340.7 426v.2c2 .6 11.5-1.4 14.4-1.6-6 2.5-13.4 2-19.7 3.2 1.6-.8 3.4-2 5.3-1.9"/>
    <path fill="#010203" d="M322.4 439c5.2-.7 10.6-.6 15.8-.7-4.7 2.1-10.8.7-15.8.6"/>
    <path fill="#58544c" d="M226.6 442.8q1.3-.4 2.5.1v.3q-1.2.4-2.3.2z"/>
    <path fill="#0c0d10" d="M171 357.5c4.8 1.5 7.4 4.3 11.1 7.4-.8 1-2.1 1.1-3.3 1.8-4.4 2.6-7 9-8 13.9 0 3.7.8 6.3 2.4 9.6q-3 1.8-5.8 4A64 64 0 0 0 151 417l.5.1a66 66 0 0 1 7.5-12.3c.3 1.8-3 4.6-3.3 6.5v.5c-1.4 2.4-3.5 5.4-2.9 8.3q.9 1.4 2.5 1.5h.6l-.2 1.2.7.3q-1.1 1.3-2.6 2.2-1.5-1.6-3.5-2.7c-1.9 1-3.7 1.8-5.1 3.5l-2 2.2q-1.8 1.6-3.6 2.8c3 1.8 8 2 11.5 3.1 6 2 12 5.8 18.2 6.8 4.3.7 9-.7 13.2.8-2.5.5-5.6.2-8.3.2-6 0-12-.3-18 0-3 0-6 .7-8.9 1l-9.3.2c-3.3.3-6.5 1-9.8 1l-1.7-.1q-1.7.3-3.6.2c-3.5 1.7-8.4.8-12.2.7l-3.2.1c-3.9 1-7.4 1-11.3 1.2l-13.7 1L64 449l-9.4.2-9.6.8-10.7.2c-3.4 0-6.8.7-10.2.7-3.4-.3-7 0-10.4 0l-.4-.9c9.7-1.9 20.9-3 30.1-6.5q.6-.4.7-1.2c-1-1.3-2.6-2.2-3.8-3.2a30 30 0 0 1-5-4.6 10 10 0 0 1-2.9-8c.5-3.7 3.2-5.7 6-7.8 1-3.5-.3-7.4.7-11q1-1.5 2.3-2.6c6-5 14.4-4 21.4-3.4q1.7.2 2.8-1c.5-1.3.2-2.9.2-4.3a14 14 0 0 1 4.7-5l.1-.2c.5-.8 11-6.7 12.5-7.3l3.7-1 3.4-1.2q.6-.8 1.5-1c3-.6 9.1-1.4 11.3-3.5 1.4-1.3 1.6-3.7 3.4-4.5 3.9-.3 7.8-1 11.7-1l3.2-1.2q3-.3 6-1c1.9-1 16.6-2 20.7-3.3q4.5-.7 8.7-2c2.8-1.1 5.3-3 8-4.4q3-1.4 6.4-2.3M142.9 380c.3-.2.5-1 .7-1.3h-3l-.1.6c.5.5 1 .4 1.6.5.5 0 .3 0 .8.2m-15.3 1.3c3.6-.2 6.8-.3 10.3-1.4l.2-.3-.2-.1c-2.5.2-8.5 0-10.5 1.5z"/>
    <path fill="#998c6d" d="M140.6 378.7h3l-.8 1.3-.8-.2q-.9.1-1.6-.5z"/>
    <path fill="url(#B)" d="M39.1 407.7q1-1.5 2.3-2.6c6-5 14.4-4 21.4-3.4h.2c.5 1.5 2.1 3.1 3 4.5 2 3.8 4.8 9.5 7.5 12.8q1 .9 2.2 1.5l3 1.5c.2.5.1.6 0 1.2 1 .4 1.5.2 2.6 0 2.6-.4 8.7 3.6 10.8 5.1q2.6 2 4.5 4.5a43 43 0 0 0-22.5-3.3 62 62 0 0 1 32.1 15q.5.5 1.3.6c-3.9 1-7.5 1-11.4 1.2l-13.7.9L64 449l-9.5.2-9.6.8-10.6.2c-3.4 0-6.8.7-10.2.7-3.4-.3-7 0-10.5 0l-.4-.9c9.8-2 21-3 30.2-6.5q.5-.4.6-1.2c-.9-1.3-2.5-2.2-3.7-3.2a30 30 0 0 1-5-4.6 10 10 0 0 1-2.9-8c.5-3.7 3.2-5.7 6-7.8 1-3.5-.4-7.4.7-11"/>
    <path fill="#58544c" d="M39.1 407.7c2.9 4.9 6.3 7.3 11.6 9.4-2.2-.3-7.7-1.7-9.4-.3l-.3.2v.5l2.5.7q-2-.2-3.7.1l-1.4.4c1-3.5-.3-7.4.7-11"/>
    <path fill="#0c0d10" d="M40.3 439a34 34 0 0 0 16.7 2.4l-.2.3c-4.3 1-9 1.2-13.4 1.8q.6-.4.6-1.2c-.9-1.3-2.5-2.2-3.7-3.2"/>
    <path fill="url(#C)" d="M70.7 392a14 14 0 0 1 12-2.2 35 35 0 0 1 18.4 11.9c-2-.4-4.6-1.2-6.6-.6-.4.4-.5.4-.5 1 .1 2.3 2 4.7 3.8 6.2 3.9 3.2 8.3 3 12.5 5.2 2.4-.6 4.4-1.9 6.5-3l3.5 1.1c-3.7 2-5.7 3.3-7.5 7.2q-2.6 1.6-5.4 2.8c-2 .9-8.4 2.2-9.3 3.7a18 18 0 0 0 8.9 3.9l3.8.2c1.6.3 5.8 2.6 6.8 4 .2.3.2.1.1.6l-.1.9q-.1 1.4 1 2.6 3.1 4 8 6v.5q-1.8.4-3.6.3c-3.6 1.7-8.5.8-12.3.6l-3.2.2q-.7 0-1.2-.6a62 62 0 0 0-32.2-15c8.2-.5 15-.2 22.6 3.3a25 25 0 0 0-4.6-4.5c-2-1.5-8.2-5.5-10.7-5-1.1.1-1.7.3-2.7-.2q.3-.6.1-1.1l-3-1.5q-1.3-.6-2.2-1.5c-2.7-3.3-5.5-9-7.6-12.8-.8-1.4-2.5-3-3-4.4l-.1-.1c1.2 0 1.8-.1 2.7-1 .6-1.3.3-2.9.2-4.3a14 14 0 0 1 4.8-5z"/>
    <path fill="#8d7d6b" d="M76.4 408.6a19 19 0 0 0 5 2.5q1.7-.8 3.6-1c6.7-1 17.4 7.4 22.4 11.4-2 1-8.4 2.3-9.3 3.7q-2.3-1-4.4-2.5-5.3-2.9-11.3-3.4a30 30 0 0 0-6-10.8m28.6 28.7c4.7 2.5 12.6 6.8 18 7-3.6 1.7-8.5.8-12.3.6-.2-2.6-4-5.7-5.7-7.6"/>
    <path fill="#010203" d="M65.8 396.4a14 14 0 0 1 4.7-5l.2.5a8 8 0 0 0-3.4 5.7q-.3 3.6 1.7 6.7c-1.8-1-3.8-2.4-6-2.5l-.2-.1c1.2 0 1.9 0 2.8-1 .5-1.3.2-2.9.2-4.2"/>
    <path fill="url(#D)" d="M171 357.5c4.8 1.5 7.4 4.3 11.1 7.4-.8 1-2.1 1.1-3.3 1.8-4.4 2.6-7 9-8 13.9-5.2 1.7-11.5 8.5-16.8 11.3q-2.6 1.3-5.3 1.9c-6.3 1.4-12.9 2.4-19 4.6-4.9 1.7-9.6 4.5-14.6 6q-3 .7-6 .7c-.7-.8-1-1.1-1.3-2.2 1.7-6.4 12.3-4.4 16.6-7a84 84 0 0 0 15.8-13.2q.3-1 .8-1.7l1.8-1 .7-1.3h-3l-.5-.7c-8 .5-16 2.2-24 2.3-4-.7-8.4.6-12.5.3 2.5-1.2 6.4-.4 8.6-1.8l.3-.2a174 174 0 0 0-22.2 3c.5-.5.7-.7 1.5-.9 3-.6 9.1-1.5 11.3-3.5 1.4-1.4 1.5-3.7 3.4-4.5 3.9-.3 7.8-1 11.7-1l3.2-1.2q3-.3 6-1c1.8-1 16.6-2 20.7-3.3 2.9-.7 6-1 8.7-2 2.8-1.2 5.3-3 8-4.4q3-1.4 6.3-2.3"/>
    <path fill="#0c0d10" d="M148 366.2q2.4.1 4.8-.4l.8.3c.3.7 0 1 0 1.7v.4l.1.3q-2.2 2.6-4.7 5l-24.5 3.4c-3.5.4-8.8.6-12 1.7a174 174 0 0 0-22.3 3c.5-.5.7-.7 1.5-.9 3-.6 9.1-1.4 11.3-3.5 1.4-1.3 1.5-3.7 3.4-4.5 3.9-.3 7.8-1 11.7-1l3.2-1.2q3-.3 6-1c1.8-1 16.6-2 20.7-3.3"/>
    <path fill="#f0c576" d="M148 366.2q2.4.1 4.8-.4l.8.3c.3.7 0 1 0 1.7v.4c-8.4.7-16.6 3-25.1 3.1l-2.3-.4-.1-.5-.2.5-.7-.1c1-.3 1.3-.4 2-1.2 2-1 16.7-2.2 20.8-3.4"/>
    <path fill="#e2b977" d="m121.3 370.5 6-1c-.8.9-1 1-2.1 1.3h.7l.2-.4v.5l2.4.4c-3.2.3-7.2 1-10.4.4z"/>
    <path fill="#0c0d10" d="M140 378q2.5-.4 5.1-.4l.1.3q-.7.5-1.7.8h-3z"/>
    <path fill="#d1a23f" d="M109.1 405.1q3 0 6-.8c5-1.4 9.7-4.2 14.7-6 6-2 12.6-3 18.8-4.5q3-.6 5.4-2c5.3-2.7 11.7-9.5 16.9-11.2a18 18 0 0 0 2.3 9.6q-3 1.8-5.8 4A64 64 0 0 0 151 417c-.8 1.4-1.7 3.1-3 4.2-1.9 1.5-5.7 0-8-.2q-.3-2.6.1-5.2.8-2.6 2.8-4.6c2.3-2.4 5.4-4.1 7.7-6.6q-5.2 2-9.7 5.3l-7.9 6.4c-5 3.6-7.8 4.7-12.6 9.4q-.7-2.2-1.7-4.5c-1-.5-3-1.3-3.5-2.3l.7-1.2c2.4-3 6.9-3.2 9.6-6 1.9-2 3-4.5 4.3-7a30 30 0 0 0 10.9-2.7 69 69 0 0 0-18.2 2.6c-2.5.8-11.1 6-12.5 5.7q.1-2.5-.8-4.9z"/>
    <path fill="#eacd58" d="m129.9 404.8 1.4.2c.3.7.2 1 0 1.8-1.7 5.4-9.5 9-14.3 11.4-.6-.1-.6 0-1-.5 2.4-3 6.9-3.2 9.6-6 1.9-2 3-4.5 4.3-7"/>
    <path fill="#f1cb83" d="M143 411.2c.5 1.5-.5 4.2-1.2 5.7q-.3 1-1.2 1.5c-.6-.8-.4-1.6-.4-2.5.6-2 1.4-3.2 2.8-4.6"/>
    <path fill="#8d7d6b" d="M123 426.4c2.3-.3 9-1.4 10.7-.4q-2.5 2.4-5.4 4.1.1 1.1 1.1 1.7c2.9 1.6 7.3 0 10.2-.8 3 1.9 8 2.1 11.5 3.2 6 2 12 5.7 18.2 6.8 4.3.7 9-.7 13.2.8-2.5.5-5.6.2-8.3.2-6 0-12.1-.4-18 0-3 0-6 .7-8.9 1-3 .1-6.2-.1-9.4.2s-6.4 1-9.7.9h-1.7v-.7a20 20 0 0 1-8-5.9q-1-1.2-1-2.6l.2-.9c0-.5.1-.3-.2-.7-1-1.3-5.2-3.6-6.7-3.9l-3.8-.2h-.3l1.8-.2c3.1 0 8-2.1 10.7-1.6l1.8.3z"/>
    <path fill="#bfb096" d="M123 426.4c2.3-.3 9-1.4 10.7-.4q-2.5 2.4-5.4 4.1c-2.6-.7-6.2.8-8 0q-.1-1.4.8-2.4z"/>
    <path fill="#8d7d6b" d="M123 426.4c3-3 5.6-4.7 9.5-6.3 1.2 1 3.4 1 5 1.3a18 18 0 0 1-3.8 4.6c-1.7-1-8.4.1-10.7.4"/>
    <path fill="#a69c84" d="M90.2 381.7a176 176 0 0 1 21.9-2.9c-2.2 1.4-6.1.7-8.6 1.8 4 .3 8.6-1 12.5-.3q-7.2.9-14.6 1.5c-4.7.5-9.9 1.5-14.6 1.2z"/>
    <path fill="#b2a478" d="M123.6 383.5c5.7-.9 11.7-2.2 17.4-2.5l-.8 1.6v.1q-6.8 1-13.8 1.7c-1 0-1.8.3-2.8-.2z"/>
    <path fill="#58544c" d="m126.4 384.4-.2.2a57 57 0 0 1-15 1c3.7-1.3 8.5-1.7 12.4-2.1v.7q1.4.5 2.8.2"/>
    <path fill="#bfb096" d="m138.1 415.7-.6 5.8c-1.6-.4-3.8-.3-5-1.4q3-2 5.6-4.4"/>
    <path fill="#938050" d="M113.8 421.1h.8c2 .3 3.4 2.6 4.4 4-3.2.1-6.5 1-9.7 1.4q-3.3 0-6.7-.6 5.8-1.9 11.2-4.8m-18.4-18.4 3.8 1c2 .3 5.7 0 7.2 1.1l.7 1.2q.4 1.4.5 2.8c-.4.8-.4.7-1.2 1-3-.1-6.1-2.7-8.3-4.7z"/>
    <path fill="#998c6d" d="m95.4 402.7 3.8 1c2 .3 5.7 0 7.2 1.1l.7 1.2c-3.3.5-4.7-.6-7.5-.7l-1.5-.2z"/>
    <path fill="#938050" d="m139.5 422.5 5.3 1.1a33 33 0 0 1-6.6 5.4q-2.7 1-5.4 1.6 3.7-3.7 6.7-8.1"/>
    <path fill="#58544c" d="m137.8 379.5.2.1-.2.4c-3.5 1-6.8 1.1-10.3 1.3l-.2-.3c2-1.5 8-1.3 10.5-1.5"/>
    <path fill="#cf7632" d="M230.7 343.3c2.3 3.2 4.6 6.6 7.6 9.3 9.2 8.5 24.7 12.4 37 14.3q6.5.9 13.2 1.2L281 374c-15.3 10.5-44.5 26.7-62.2 31h-2.6q-2.6.4-5.3.1a96 96 0 0 1-27-7.1c-3.7-2.7-5.2-5.7-10.2-6h-.3a38 38 0 0 0-13 12.4c-1.5 2.4-2.9 5.2-4.8 7.4v-.5c.2-2 3.6-4.7 3.3-6.5a68 68 0 0 0-7.5 12.3h-.5a64 64 0 0 1 16.4-22.8q2.8-2.4 5.8-4.1c-1.6-3.3-2.5-6-2.3-9.6 1-4.8 3.5-11.3 8-14 1-.6 2.4-.7 3.2-1.8l.3.1.8.3c2.2 1 4.8.6 7.2.8 4 .5 8 1.9 11.8 3h3l1.2-.8.3-.4c.8-1 3.4-3.9 4.7-4 2.4-.9 5.1-3.6 7.2-5 .7-1.4 2-2.7 3-4a35 35 0 0 0 5.9-9c.5-1.2 2-2 3.2-2.6"/>
    <path fill="#010203" d="M182.1 364.9h.3l.8.3c2.2 1 4.8.6 7.2.8 4 .5 8 2 11.8 3l-1 2.8c-6-1.3-12.2-2.8-17.8.8-3 1.8-4 3.8-6 6.5l.1.2h.5v2.8c.2 5.1 1.7 10.2 5.5 13.7q1.6 1.5 3.7 2.3c3.6 1.4 7.8 1.8 11.7 2.7 5.9 1.5 11.4 3 17.4 4.1q-2.6.5-5.3.2a96 96 0 0 1-27-7.1c-3.7-2.7-5.2-5.7-10.2-6h-.3a38 38 0 0 0-13 12.4c-1.5 2.4-2.9 5.2-4.8 7.3v-.4c.2-2 3.6-4.7 3.3-6.6a68 68 0 0 0-7.5 12.4h-.5a64 64 0 0 1 16.4-22.9q2.8-2.2 5.8-4c-1.6-3.3-2.5-6-2.3-9.7 1-4.8 3.5-11.2 8-13.8 1-.7 2.4-.8 3.2-1.9"/>
    <path fill="#f2a231" d="M190.4 366c4 .6 8 2 11.8 3l-1 2.8c-6-1.3-12.2-2.8-17.8.8-3 1.8-4 3.8-6 6.5h-.4q-1.6.5-3-.4c1.3-3.6 2.8-7.1 5.5-9.9.6.8 1 1.9 1.9 2.4l-.4 1.7c1.2-.5 2-2.3 3-3.1q2.9-2.6 6.4-3.8"/>
    <path fill="#cf8b53" d="M174 378.7q1.4.9 3 .5l.4-.1.1.2h.5v2.9h-.4c-.4 2.2.3 5-.3 7q-1.6-.7-2.5-2.2c-1.6-2.4-1.2-5.6-.7-8.3"/>
    <path fill="#613420" d="M177.5 379.3h.5v2.9h-.4c-.4 2.2.3 5-.3 7q-.5-5 .2-10"/>
    <path fill="#e69e5c" d="M179.5 368.8q2-1 4.2-1.5-1.3 1.9-2.3 4-1.1-1-1.9-2.5"/>
    <path fill="#010203" d="m206.4 368.2.3-.3c.8-1 3.4-4 4.7-4.1-1.5 1.9-2 3.7-2.4 6-1.3 4.9-1 10.4-1.1 15.4a32 32 0 0 1-1.5-17"/>
    <path fill="#e69e5c" d="M218.6 358.8c-.4 4.1-6.9 7.9-8.4 12.2h-.6l-.4 1-.2-2.1a13 13 0 0 1 2.4-6.1c2.4-.8 5.1-3.5 7.2-5"/>
    <path fill="#010203" d="M202.2 369h3a41 41 0 0 0-3.7 9.7l-1.1-.7q.2-3.1.8-6.2z"/>
    <path fill="#0c0d10" d="m200.4 378 1 .7-.4.8-.4-.2z"/>
    <path fill="#7c7161" d="M425.9 428.2c7.8 2 10.2-1.6 16.9-2.2-10 9-19.2 9.4-31.8 9.9-3.1.1-6.3.7-9.4.5q-4.2-.3-8.4-.9c4.2-1.5 8.7-.7 12.8-1.8 2.3-.6 3.5-2.3 5.6-3.2l2-1c3.4-1.5 8.4.9 12-.7z"/>
    <path fill="#010203" d="M281 374q1 .2 1.8.7l-10.7 8.9c-6.2 4.6-20 12-27.3 14.6-3.8 1.3-7.7 2-11.5 3.2-4.2 1.4-9 4.3-13.5 3.7l-1-.2c17.8-4.2 47-20.4 62.3-31m192.6-31.2q1.5-.5 3.1-.2c-1.2 1.5-3.2 3.4-3.6 5.2v.3q-.2 2-.7 4l.1.2 1-2 .3.6q-.1 2.9-1.3 5.3c-1.9 1.3-3.5 2.2-5.8 1.8l-1.3-.2a17 17 0 0 1-3.3-5.1q2.1-4.3 5.7-7.3c1.7-1.5 3.5-2.8 5.8-2.6"/>
    <path fill="#938050" d="M473.7 342.7q1.5-.5 3.1-.2c-1.2 1.5-3.2 3.4-3.6 5.2l-.1.2c-1.2 2-1.5 7.5-3.9 8.2-1.2.4-2.5-.5-3.5-1.1l5.7-9.8c.3-.7.4-.7.2-1.4z"/>
    <path fill="#b2a478" d="M471.6 343.8c.1.7.1.7-.2 1.4l-5.7 9.8-.5-.9c-.7-1.4-1-2.4-.4-3.9 1-2.9 4.1-5 6.8-6.4"/>
    <path fill="#010203" d="M312.6 401.4c2.3 0 4 0 6.7-.4l10.8-1.5 1.8-.1a97 97 0 0 1-9.9 3.5q-3.6 1.1-4.7 1.2l-5.5 1q-1.8.4-3.7.4c-5.4 1.2-10.5 0-15.7-1.5 6.7-.9 13.6-2.2 20.2-2.6"/>
    <path d="m106.4 372.7-.4-.9.3-.4 3-.4h-.4c1.8.1 4.8.8 6.4.2l-1.5-.7v-.4l.5-.1c1-.3 3.8-.5 4.7 0q.8.6 2 .5h.3q-1.5.8-3.2 1.3c-4 0-7.8.6-11.7.9"/>
    <path fill="#010203" d="M476.9 342.5q.8-.6 1.8-.6v.4a19 19 0 0 0-4.8 8.5l-.3-.5q-.6.9-1 1.9l-.1-.1.7-4.1v-.3c.4-1.8 2.4-3.7 3.6-5.2"/>
    <path fill="#0c0d10" fill-opacity=".6" d="M24 451c-3.6.4-7.6 0-11.3.1-2.7 0-5.4.3-8.1 0l.1-.2 1.6-.3c2.4.5 5 .2 7.4.2q5.2-.2 10.4.1"/>
    <path fill="#0c0d10" fill-opacity=".9" d="M6.4 450.6q3.4-.6 6.9-.6l.4.8c-2.4 0-5 .3-7.3-.2"/>
    <path fill="#010203" d="M509.8 347.2c1 0 1.5-.2 2.4.2q-.6 1-1.7 1.3l-.8-1z"/>
    <path fill="#a8e3e7" d="M343.9 23.4a3 3 0 0 1 3.6 3.8 3 3 0 0 1-2.3 2 3 3 0 0 1-1.3-5.8"/>
    <path fill="#184049" d="M344 24.9q1.4-.5 2 .8a1.6 1.6 0 0 1-2.3 2 1.6 1.6 0 0 1 .3-2.8"/>
    <path fill="#a8e3e7" d="M352.4 21.8a3 3 0 0 1 3.6 3.8 3 3 0 0 1-2.2 2 3 3 0 0 1-1.4-5.8"/>
    <path fill="#184049" d="M352.5 23.2q1.4-.4 2 .8a1.6 1.6 0 0 1-2.3 2 1.6 1.6 0 0 1 .3-2.8"/>
    <path fill="#a8e3e7" d="m348.8 183-.7-1 2.5-1.7-5.6-.8.2-1.2 5.6.8-2-2.4 1-.7 3.2 4zm-12.3-9.3.7 1-2.6 1.7 5.6 1-.2 1.1-5.5-.9 1.9 2.5-1 .6-3.2-4z"/>
    <path stroke="url(#E)" stroke-miterlimit="10" stroke-width=".6" d="M482.4 181.6q0-1.1 1.2-1.3l1.3-.1 1 .6 2.9-.2q1-.1 1 .8l-.5 2.7c-.3.7-1 1.8-1.9 1.8l-3.8.6c-.8 0-2.8.5-2.9-.2z"/>
    <path stroke="url(#F)" stroke-linecap="round" stroke-width="1.6" d="M484 39.1c7.5 0 13.6-6.4 13.6-14.2s-6-14.3-13.6-14.3-13.6 6.4-13.6 14.3S476.4 39 484 39Z"/>
    <path stroke="url(#G)" stroke-linecap="round" stroke-width="1.6" d="M470.4 25.3h27.2"/>
    <path stroke="url(#H)" stroke-linecap="round" stroke-width="1.6" d="M472.8 18a26 26 0 0 0 21.8 0"/>
    <path stroke="url(#I)" stroke-linecap="round" stroke-width="1.6" d="M472.8 32.6q10.5-4.4 21.8 0"/>
    <path stroke="url(#J)" stroke-linecap="round" stroke-width="1.6" d="M483.7 10.8a27 27 0 0 1 0 28.2"/>
    <path stroke="url(#K)" stroke-linecap="round" stroke-width="1.6" d="M483 10.8a28 28 0 0 0 0 28.2"/>
    <path fill="#adfffd" d="m388 37.3.7-.1.2 1.6.5-.4.7-.2c.5 0 1.3.1 1.4 1l.1 1.6h-.7v-1.4q-.1-.8-1-.7-.7.1-1 .5v.3l.2 1.6h-.7zm5.3 0v.7h1v.3h-.9l.1 1.5q0 .5.6.5h.4v.3l-.6.1-.7-.1-.4-.7v-1.5h-.7v-.3h.6v-.7zm2.6-.2v.7h1l.1.3-1 .1v1.4q0 .6.6.5h.4v.3l-.5.1-.8-.1q-.3-.3-.3-.7v-1.5h-.7V38h.6v-.7zm2 1.5-.2-.9h.7v.5q.4-.6 1.4-.6 1.5 0 1.6 1.3-.1 1.4-1.6 1.5-.8 0-1.2-.4v1.5h-.6zm.6.7v.2q.3.5 1.1.5 1.2-.1 1.1-1t-1.1-1q-.9 0-1 .6l-.1.2zm3.7.4 1 .2q.7 0 .7-.4t-.7-.5q-1-.2-1-.7 0-.7 1.2-.8l1 .1-.2.4-.8-.2q-.6 0-.6.4 0 .3.7.4 1 .3 1 .8 0 .8-1.3.8l-1.1-.1zm3-1.8q0-.3.5-.3t.5.3-.5.4-.4-.4m0 2q.1-.4.5-.4t.5.3q0 .4-.5.4-.3 0-.4-.3m1.3.4 2.2-4h.5l-2.2 4zm2.7 0 2.2-4h.5l-2.2 4zm2.8-.4 1.8-1.6.5-.4h-2.1v-.4h3l-.1.4-2.2 1.9h2.2v.4H412zm4.7-3q0 .3-.5.2t-.4-.3.5-.3.4.4m-1 3.3.2-2.6h.7l-.1 2.7zm2.4-1.1q0 1 1.2 1l1-.1.2.4h-1.3q-1.8-.1-1.8-1.4t1.9-1.3c1.2 0 1.5.8 1.5 1.3v.2zm2-.2q.2-.7-1-.9-1 .1-1 .7zm1.9-1 .5.6.4.5.4-.4.6-.6.7.1-1.4 1.2 1.3 1.5-.8-.1-.5-.7-.4-.4-.5.4-.5.5h-.8l1.4-1.3-1.2-1.3zm3 2.6q0-.3.5-.3t.4.4-.5.3-.4-.4m5.4-3.1-.3 3.2v.7h-.7v-.5q-.3.4-1.3.3-1.6-.2-1.5-1.5c0-.8.9-1.3 1.8-1.2q1 .1 1.1.5l.2-1.6zm-1 2.2v-.2q0-.5-.9-.6-1.1 0-1.2.9t1 1q.7.2 1-.4l.1-.2zm2.2.6q0 1 1.2 1h1l.1.4h-1.2q-1.8-.2-1.7-1.5t2-1.2c1.2.1 1.4 1 1.3 1.4v.2zm2.1 0c0-.4 0-.9-.9-1q-1 0-1.1.7zm2-1 .7 2.4.4-.6 1-1.4.7.1-1.9 2.4h-.6l-1.1-3z"/>
    <path fill="#184049" d="M484.7 80.9c-.4 0-1.9-.2-2.2-.4-2.1-.9-3-5.3-2.5-7.1l.9-.2c1 1.5.2.6.4 1.5 1.6-.5 14.7 4 17.5 3.9 0-.5.2-.5.7-1 1.7 1.3 3 5.6 2 7.4l-4-1.1-9.5-2.2c-1 .7-.8 1-1.2 2.5l-2.4-.4c.4-1.3.3-1.6.3-2.9"/>
    <path fill="#88c0c3" d="M484.7 80.9c-.4 0-1.9-.2-2.2-.4-2.1-.9-3-5.3-2.5-7.1l.9-.2q.9 1 .7 1.1h-.3v.4c.4 1.9.5 3.6 2 4.7l1.5.2c2.1.3 14.4 3.4 15.1 3.1a6 6 0 0 0-1.1-4.1c0-.5.2-.5.7-1 1.6 1.3 3 5.6 2 7.4l-4-1.1-9.5-2.2c-1 .7-.8 1-1.2 2.5l-2.4-.4c.4-1.3.3-1.6.3-2.9"/>
    <path fill="#4b8183" d="m482 75.4 2.3.4c4.3.9 6.1 1.7 10.2 2.7l4 .8a4 4 0 0 1 .8 2.9l-2.1-.4-3.5-.7-3-.7q-3-.8-6-1.3-.7 0-1.3-.3c-1-.7-1.3-2.3-1.3-3.5"/>
    <path fill="#75a9a8" d="M481.3 73.1c6 .9 12 2.7 17.8 4.3l.4.2c-.5.5-.6.5-.7 1-2.8 0-15.9-4.4-17.5-3.9-.2-.9.5 0-.4-1.5z"/>
    <path fill="#184049" d="M486 90.4c-.4 0-1.8-.2-2.2-.4-2-.9-3-5.3-2.5-7.1l1-.1c.9 1.4.1.6.4 1.4 1.6-.4 14.7 4 17.4 3.9.1-.5.3-.5.7-1 1.7 1.3 3 5.6 2 7.4l-4-1.1-9.4-2.2"/>
    <path fill="#88c0c3" d="M486 90.4c-.4 0-1.8-.2-2.2-.4-2-.9-3-5.3-2.5-7.1l1-.1.7 1h-.4v.5c.5 1.8.5 3.5 2 4.7h1.5c2.2.5 14.4 3.5 15.1 3.3.2-1.4-.3-3.1-1.1-4.2.1-.5.3-.5.7-1 1.7 1.3 3 5.6 2 7.4l-4-1.1-9.4-2.2z"/>
    <path fill="#4b8183" d="m483.4 84.9 2.2.4c4.3.9 6.2 1.7 10.2 2.7l4 .8a4 4 0 0 1 .8 3l-2-.5-3.6-.7-2.9-.6q-3-1-6.1-1.4-.7 0-1.3-.3c-1-.6-1.3-2.3-1.3-3.4"/>
    <path fill="#75a9a8" d="M482.6 82.6c6 1 12 2.7 17.9 4.3l.3.2c-.4.5-.6.5-.7 1-2.7 0-15.8-4.3-17.4-3.9-.3-.9.5 0-.5-1.4z"/>
    <path fill="#2c694e" d="M194.5 167.5a1.6 1.6 0 1 0 0-3.1 1.6 1.6 0 0 0 0 3"/>
    <path fill="#acece9" d="M208 149.5a2.8 2.8 0 1 0 0-5.5 2.8 2.8 0 0 0 0 5.5"/>
    <path fill="#2c694e" d="M187.5 203a1.6 1.6 0 1 0 0-3 1.6 1.6 0 0 0 0 3m5 7.2a1.6 1.6 0 1 0 0-3.1 1.6 1.6 0 0 0 0 3m-3.5 9.7a1.6 1.6 0 1 0 0-3.2 1.6 1.6 0 0 0 0 3.2m19-71.6a1.6 1.6 0 1 0 0-3.1 1.6 1.6 0 0 0 0 3.1m-16 4.8a1.2 1.2 0 1 0 0-2.3 1.2 1.2 0 0 0 0 2.3"/>
    <path fill="#a8e3e7" d="M387.2 18.7c2.7.3 2.7.6 3.5 1 2.6 1.3 5.7 4.1 7.8 7 .1.3.2 1.6-.2 1.6q-.6 0-1-.5c-2-2.6-3.7-4.8-6-5.9-1.9-.8-2.4-1.2-4-1.2-.8 0-.7-2 0-2z"/>
  </g>
  <defs>
    <linearGradient id="b" x1="349" x2="462.7" y1="197.1" y2="23" gradientUnits="userSpaceOnUse">
      <stop stop-color="#b7f7e9"/>
      <stop offset="1" stop-color="#abe7f1"/>
    </linearGradient>
    <linearGradient id="c" x1="453.2" x2="364.3" y1="35.8" y2="189" gradientUnits="userSpaceOnUse">
      <stop stop-color="#a9e5f0"/>
      <stop offset="1" stop-color="#bbfcea"/>
    </linearGradient>
    <linearGradient id="d" x1="419.2" x2="409.6" y1="34" y2="56" gradientUnits="userSpaceOnUse">
      <stop stop-color="#1d414b"/>
      <stop offset=".4" stop-color="#1d424c"/>
      <stop offset=".5" stop-color="#1f4953"/>
      <stop offset=".7" stop-color="#22545f"/>
      <stop offset=".7" stop-color="#266470"/>
      <stop offset=".8" stop-color="#2c7886"/>
      <stop offset=".9" stop-color="#3492a1"/>
      <stop offset=".9" stop-color="#3cb0c1"/>
      <stop offset="1" stop-color="#46d2e6"/>
      <stop offset="1" stop-color="#4deaff"/>
    </linearGradient>
    <linearGradient id="e" x1="403.5" x2="400.5" y1="153.5" y2="177.6" gradientUnits="userSpaceOnUse">
      <stop stop-color="#788343"/>
      <stop offset="1" stop-color="#769861"/>
    </linearGradient>
    <linearGradient id="f" x1="499.9" x2="456.6" y1="121.5" y2="118.6" gradientUnits="userSpaceOnUse">
      <stop stop-color="#0a0e18"/>
      <stop offset="1" stop-color="#132f38"/>
    </linearGradient>
    <linearGradient id="g" x1="510.6" x2="460.4" y1="163" y2="80.5" gradientUnits="userSpaceOnUse">
      <stop stop-color="#1e3239"/>
      <stop offset="1" stop-color="#205655"/>
    </linearGradient>
    <linearGradient id="h" x1="468.8" x2="481.7" y1="71.5" y2="70.8" gradientUnits="userSpaceOnUse">
      <stop stop-color="#4d5760"/>
      <stop offset="1" stop-color="#5b7a7e"/>
    </linearGradient>
    <linearGradient id="i" x1="465.1" x2="465.8" y1="63.4" y2="55.2" gradientUnits="userSpaceOnUse">
      <stop stop-color="#545f6c"/>
      <stop offset="1" stop-color="#527b80"/>
    </linearGradient>
    <linearGradient id="j" x1="486" x2="487.1" y1="65.2" y2="61.7" gradientUnits="userSpaceOnUse">
      <stop stop-color="#042025"/>
      <stop offset="1" stop-color="#2d5e65"/>
    </linearGradient>
    <linearGradient id="k" x1="327.1" x2="333.1" y1="99" y2="97" gradientUnits="userSpaceOnUse">
      <stop stop-color="#1d3e46"/>
      <stop offset="1" stop-color="#2b676b"/>
    </linearGradient>
    <linearGradient id="l" x1="432.3" x2="424.7" y1="214.1" y2="183.2" gradientUnits="userSpaceOnUse">
      <stop stop-color="#a3d9e4"/>
      <stop offset="1" stop-color="#c0fee4"/>
    </linearGradient>
    <linearGradient id="m" x1="454.3" x2="455.9" y1="204.2" y2="187.8" gradientUnits="userSpaceOnUse">
      <stop stop-color="#0c3e43"/>
      <stop offset="1" stop-color="#24616b"/>
    </linearGradient>
    <linearGradient id="n" x1="355.6" x2="360.9" y1="206.6" y2="200.3" gradientUnits="userSpaceOnUse">
      <stop/>
      <stop offset="1" stop-color="#0c2e2b"/>
    </linearGradient>
    <linearGradient id="o" x1="380.1" x2="384.4" y1="201.1" y2="183.9" gradientUnits="userSpaceOnUse">
      <stop stop-color="#789660"/>
      <stop offset="1" stop-color="#6cae8f"/>
    </linearGradient>
    <linearGradient id="p" x1="485" x2="496.6" y1="165.3" y2="181.6" gradientUnits="userSpaceOnUse">
      <stop stop-color="#08383d"/>
      <stop offset="1" stop-color="#216164"/>
    </linearGradient>
    <linearGradient id="q" x1="247" x2="197.9" y1="218.4" y2="187.9" gradientUnits="userSpaceOnUse">
      <stop stop-color="#2b292b"/>
      <stop offset="1" stop-color="#3a5656"/>
    </linearGradient>
    <linearGradient id="r" x1="444.6" x2="442.3" y1="200.7" y2="213.3" gradientUnits="userSpaceOnUse">
      <stop stop-color="#052d32"/>
      <stop offset="1" stop-color="#1a555e"/>
    </linearGradient>
    <linearGradient id="s" x1="311.9" x2="328.6" y1="141.1" y2="142.8" gradientUnits="userSpaceOnUse">
      <stop stop-color="#5a6842"/>
      <stop offset="1" stop-color="#5d855d"/>
    </linearGradient>
    <linearGradient id="t" x1="301.2" x2="299.4" y1="167.8" y2="168.9" gradientUnits="userSpaceOnUse">
      <stop stop-color="#686f7d"/>
      <stop offset="1" stop-color="#77888d"/>
    </linearGradient>
    <linearGradient id="u" x1="370.7" x2="371.4" y1="222" y2="212.8" gradientUnits="userSpaceOnUse">
      <stop stop-color="#5f7049"/>
      <stop offset="1" stop-color="#5e8765"/>
    </linearGradient>
    <linearGradient id="v" x1="324.1" x2="329" y1="194.7" y2="192.1" gradientUnits="userSpaceOnUse">
      <stop stop-color="#495567"/>
      <stop offset="1" stop-color="#506b76"/>
    </linearGradient>
    <linearGradient id="w" x1="397.5" x2="397.9" y1="223.5" y2="215.4" gradientUnits="userSpaceOnUse">
      <stop stop-color="#575563"/>
      <stop offset="1" stop-color="#768590"/>
    </linearGradient>
    <linearGradient id="x" x1="229.2" x2="236.4" y1="105.8" y2="117.8" gradientUnits="userSpaceOnUse">
      <stop stop-color="#6e9992"/>
      <stop offset="1" stop-color="#647675"/>
    </linearGradient>
    <linearGradient id="y" x1="333.9" x2="326.9" y1="209" y2="223.1" gradientUnits="userSpaceOnUse">
      <stop stop-color="#af7c53"/>
      <stop offset="1" stop-color="#d07623"/>
    </linearGradient>
    <linearGradient id="z" x1="272.1" x2="296.2" y1="134.3" y2="115.2" gradientUnits="userSpaceOnUse">
      <stop stop-color="#525661"/>
      <stop offset="1" stop-color="#697a81"/>
    </linearGradient>
    <linearGradient id="A" x1="452.2" x2="355.7" y1="404.6" y2="375.7" gradientUnits="userSpaceOnUse">
      <stop stop-color="#efcf4d"/>
      <stop offset="1" stop-color="#cab592"/>
    </linearGradient>
    <linearGradient id="B" x1="44.9" x2="81.3" y1="470.3" y2="414.1" gradientUnits="userSpaceOnUse">
      <stop stop-color="#292626"/>
      <stop offset="1" stop-color="#8d806d"/>
    </linearGradient>
    <linearGradient id="C" x1="74.8" x2="117.3" y1="428.9" y2="408.9" gradientUnits="userSpaceOnUse">
      <stop stop-color="#978974"/>
      <stop offset="1" stop-color="#c8b79f"/>
    </linearGradient>
    <linearGradient id="D" x1="153.4" x2="125.3" y1="394.1" y2="361.2" gradientUnits="userSpaceOnUse">
      <stop stop-color="#f3d349"/>
      <stop offset="1" stop-color="#d5bc7b"/>
    </linearGradient>
    <linearGradient id="E" x1="483" x2="487.6" y1="188.1" y2="179.4" gradientUnits="userSpaceOnUse">
      <stop stop-color="#b7f7e9"/>
      <stop offset="1" stop-color="#abe7f1"/>
    </linearGradient>
    <linearGradient id="F" x1="469.6" x2="498.4" y1="24.9" y2="24.9" gradientUnits="userSpaceOnUse">
      <stop stop-color="#b7f7e9"/>
      <stop offset="1" stop-color="#abe7f1"/>
    </linearGradient>
    <linearGradient id="G" x1="nan" x2="nan" y1="nan" y2="nan" gradientUnits="userSpaceOnUse">
      <stop stop-color="#b7f7e9"/>
      <stop offset="1" stop-color="#abe7f1"/>
    </linearGradient>
    <linearGradient id="H" x1="472" x2="495.4" y1="19.3" y2="19.3" gradientUnits="userSpaceOnUse">
      <stop stop-color="#b7f7e9"/>
      <stop offset="1" stop-color="#abe7f1"/>
    </linearGradient>
    <linearGradient id="I" x1="472" x2="495.4" y1="31.5" y2="31.5" gradientUnits="userSpaceOnUse">
      <stop stop-color="#b7f7e9"/>
      <stop offset="1" stop-color="#abe7f1"/>
    </linearGradient>
    <linearGradient id="J" x1="482.9" x2="488.5" y1="24.9" y2="24.9" gradientUnits="userSpaceOnUse">
      <stop stop-color="#b7f7e9"/>
      <stop offset="1" stop-color="#abe7f1"/>
    </linearGradient>
    <linearGradient id="K" x1="478.3" x2="483.7" y1="24.9" y2="24.9" gradientUnits="userSpaceOnUse">
      <stop stop-color="#b7f7e9"/>
      <stop offset="1" stop-color="#abe7f1"/>
    </linearGradient>
    <clipPath id="a">
      <path fill="#fff" d="M0 0h524.6v451.3H0z"/>
    </clipPath>
  </defs>
</svg>
